<svg width="259" height="190" viewBox="0 0 259 190" fill="none" xmlns="http://www.w3.org/2000/svg">
<circle cx="126" cy="95" r="93.5" stroke="#D39C32" stroke-width="3"/>
<path d="M84.4166 72V66.84H94.0566V96H88.2966V72H84.4166ZM119.189 71.68H106.229V78.52C106.789 77.8267 107.589 77.2667 108.629 76.84C109.669 76.3867 110.775 76.16 111.949 76.16C114.082 76.16 115.829 76.6267 117.189 77.56C118.549 78.4933 119.535 79.6933 120.149 81.16C120.762 82.6 121.069 84.1467 121.069 85.8C121.069 88.8667 120.189 91.3333 118.429 93.2C116.695 95.0667 114.215 96 110.989 96C107.949 96 105.522 95.24 103.709 93.72C101.895 92.2 100.869 90.2133 100.629 87.76H106.069C106.309 88.8267 106.842 89.68 107.669 90.32C108.522 90.96 109.602 91.28 110.909 91.28C112.482 91.28 113.669 90.7867 114.469 89.8C115.269 88.8133 115.669 87.5067 115.669 85.88C115.669 84.2267 115.255 82.9733 114.429 82.12C113.629 81.24 112.442 80.8 110.869 80.8C109.749 80.8 108.815 81.08 108.069 81.64C107.322 82.2 106.789 82.9467 106.469 83.88H101.109V66.76H119.189V71.68ZM125.331 81.04C125.331 76.4267 126.158 72.8133 127.811 70.2C129.491 67.5867 132.264 66.28 136.131 66.28C139.998 66.28 142.758 67.5867 144.411 70.2C146.091 72.8133 146.931 76.4267 146.931 81.04C146.931 85.68 146.091 89.32 144.411 91.96C142.758 94.6 139.998 95.92 136.131 95.92C132.264 95.92 129.491 94.6 127.811 91.96C126.158 89.32 125.331 85.68 125.331 81.04ZM141.411 81.04C141.411 79.0667 141.278 77.4133 141.011 76.08C140.771 74.72 140.264 73.6133 139.491 72.76C138.744 71.9067 137.624 71.48 136.131 71.48C134.638 71.48 133.504 71.9067 132.731 72.76C131.984 73.6133 131.478 74.72 131.211 76.08C130.971 77.4133 130.851 79.0667 130.851 81.04C130.851 83.0667 130.971 84.7733 131.211 86.16C131.451 87.52 131.958 88.6267 132.731 89.48C133.504 90.3067 134.638 90.72 136.131 90.72C137.624 90.72 138.758 90.3067 139.531 89.48C140.304 88.6267 140.811 87.52 141.051 86.16C141.291 84.7733 141.411 83.0667 141.411 81.04ZM172.75 84.2H165.19V91.96H159.91V84.2H152.35V79.32H159.91V71.56H165.19V79.32H172.75V84.2ZM71.2973 108.375V112.75H77.1723V115.525H71.2973V120.15H77.9223V123H67.7973V105.525H77.9223V108.375H71.2973ZM98.3029 108.95C100.003 108.95 101.37 109.475 102.403 110.525C103.453 111.558 103.978 113.008 103.978 114.875V123H100.478V115.35C100.478 114.267 100.203 113.442 99.6529 112.875C99.1029 112.292 98.3529 112 97.4029 112C96.4529 112 95.6946 112.292 95.1279 112.875C94.5779 113.442 94.3029 114.267 94.3029 115.35V123H90.8029V115.35C90.8029 114.267 90.5279 113.442 89.9779 112.875C89.4279 112.292 88.6779 112 87.7279 112C86.7613 112 85.9946 112.292 85.4279 112.875C84.8779 113.442 84.6029 114.267 84.6029 115.35V123H81.1029V109.15H84.6029V110.825C85.0529 110.242 85.6279 109.783 86.3279 109.45C87.0446 109.117 87.8279 108.95 88.6779 108.95C89.7613 108.95 90.7279 109.183 91.5779 109.65C92.4279 110.1 93.0863 110.75 93.5529 111.6C94.0029 110.8 94.6529 110.158 95.5029 109.675C96.3696 109.192 97.3029 108.95 98.3029 108.95ZM110.799 111.15C111.249 110.517 111.866 109.992 112.649 109.575C113.449 109.142 114.358 108.925 115.374 108.925C116.558 108.925 117.624 109.217 118.574 109.8C119.541 110.383 120.299 111.217 120.849 112.3C121.416 113.367 121.699 114.608 121.699 116.025C121.699 117.442 121.416 118.7 120.849 119.8C120.299 120.883 119.541 121.725 118.574 122.325C117.624 122.925 116.558 123.225 115.374 123.225C114.358 123.225 113.458 123.017 112.674 122.6C111.908 122.183 111.283 121.658 110.799 121.025V129.6H107.299V109.15H110.799V111.15ZM118.124 116.025C118.124 115.192 117.949 114.475 117.599 113.875C117.266 113.258 116.816 112.792 116.249 112.475C115.699 112.158 115.099 112 114.449 112C113.816 112 113.216 112.167 112.649 112.5C112.099 112.817 111.649 113.283 111.299 113.9C110.966 114.517 110.799 115.242 110.799 116.075C110.799 116.908 110.966 117.633 111.299 118.25C111.649 118.867 112.099 119.342 112.649 119.675C113.216 119.992 113.816 120.15 114.449 120.15C115.099 120.15 115.699 119.983 116.249 119.65C116.816 119.317 117.266 118.842 117.599 118.225C117.949 117.608 118.124 116.875 118.124 116.025ZM127.743 104.5V123H124.243V104.5H127.743ZM137.351 123.225C136.017 123.225 134.817 122.933 133.751 122.35C132.684 121.75 131.842 120.908 131.226 119.825C130.626 118.742 130.326 117.492 130.326 116.075C130.326 114.658 130.634 113.408 131.251 112.325C131.884 111.242 132.742 110.408 133.826 109.825C134.909 109.225 136.117 108.925 137.451 108.925C138.784 108.925 139.992 109.225 141.076 109.825C142.159 110.408 143.009 111.242 143.626 112.325C144.259 113.408 144.576 114.658 144.576 116.075C144.576 117.492 144.251 118.742 143.601 119.825C142.967 120.908 142.101 121.75 141.001 122.35C139.917 122.933 138.701 123.225 137.351 123.225ZM137.351 120.175C137.984 120.175 138.576 120.025 139.126 119.725C139.692 119.408 140.142 118.942 140.476 118.325C140.809 117.708 140.976 116.958 140.976 116.075C140.976 114.758 140.626 113.75 139.926 113.05C139.242 112.333 138.401 111.975 137.401 111.975C136.401 111.975 135.559 112.333 134.876 113.05C134.209 113.75 133.876 114.758 133.876 116.075C133.876 117.392 134.201 118.408 134.851 119.125C135.517 119.825 136.351 120.175 137.351 120.175ZM160.393 109.15L151.818 129.55H148.093L151.093 122.65L145.543 109.15H149.468L153.043 118.825L156.668 109.15H160.393ZM175.155 115.775C175.155 116.275 175.121 116.725 175.055 117.125H164.93C165.013 118.125 165.363 118.908 165.98 119.475C166.596 120.042 167.355 120.325 168.255 120.325C169.555 120.325 170.48 119.767 171.03 118.65H174.805C174.405 119.983 173.638 121.083 172.505 121.95C171.371 122.8 169.98 123.225 168.33 123.225C166.996 123.225 165.796 122.933 164.73 122.35C163.68 121.75 162.855 120.908 162.255 119.825C161.671 118.742 161.38 117.492 161.38 116.075C161.38 114.642 161.671 113.383 162.255 112.3C162.838 111.217 163.655 110.383 164.705 109.8C165.755 109.217 166.963 108.925 168.33 108.925C169.646 108.925 170.821 109.208 171.855 109.775C172.905 110.342 173.713 111.15 174.28 112.2C174.863 113.233 175.155 114.425 175.155 115.775ZM171.53 114.775C171.513 113.875 171.188 113.158 170.555 112.625C169.921 112.075 169.146 111.8 168.23 111.8C167.363 111.8 166.63 112.067 166.03 112.6C165.446 113.117 165.088 113.842 164.955 114.775H171.53ZM176.809 116.025C176.809 114.625 177.084 113.383 177.634 112.3C178.201 111.217 178.968 110.383 179.934 109.8C180.901 109.217 181.976 108.925 183.159 108.925C184.059 108.925 184.918 109.125 185.734 109.525C186.551 109.908 187.201 110.425 187.684 111.075V104.5H191.234V123H187.684V120.95C187.251 121.633 186.643 122.183 185.859 122.6C185.076 123.017 184.168 123.225 183.134 123.225C181.968 123.225 180.901 122.925 179.934 122.325C178.968 121.725 178.201 120.883 177.634 119.8C177.084 118.7 176.809 117.442 176.809 116.025ZM187.709 116.075C187.709 115.225 187.543 114.5 187.209 113.9C186.876 113.283 186.426 112.817 185.859 112.5C185.293 112.167 184.684 112 184.034 112C183.384 112 182.784 112.158 182.234 112.475C181.684 112.792 181.234 113.258 180.884 113.875C180.551 114.475 180.384 115.192 180.384 116.025C180.384 116.858 180.551 117.592 180.884 118.225C181.234 118.842 181.684 119.317 182.234 119.65C182.801 119.983 183.401 120.15 184.034 120.15C184.684 120.15 185.293 119.992 185.859 119.675C186.426 119.342 186.876 118.875 187.209 118.275C187.543 117.658 187.709 116.925 187.709 116.075Z" fill="black"/>
</svg>
