<svg width="259" height="190" viewBox="0 0 259 190" fill="none" xmlns="http://www.w3.org/2000/svg">
<circle cx="126" cy="95" r="93.5" stroke="#D39C32" stroke-width="3"/>
<path d="M71.4869 72V66.84H81.1269V96H75.3669V72H71.4869ZM106.259 71.68H93.2991V78.52C93.8591 77.8267 94.6591 77.2667 95.6991 76.84C96.7391 76.3867 97.8457 76.16 99.0191 76.16C101.152 76.16 102.899 76.6267 104.259 77.56C105.619 78.4933 106.606 79.6933 107.219 81.16C107.832 82.6 108.139 84.1467 108.139 85.8C108.139 88.8667 107.259 91.3333 105.499 93.2C103.766 95.0667 101.286 96 98.0591 96C95.0191 96 92.5924 95.24 90.7791 93.72C88.9657 92.2 87.9391 90.2133 87.6991 87.76H93.1391C93.3791 88.8267 93.9124 89.68 94.7391 90.32C95.5924 90.96 96.6724 91.28 97.9791 91.28C99.5524 91.28 100.739 90.7867 101.539 89.8C102.339 88.8133 102.739 87.5067 102.739 85.88C102.739 84.2267 102.326 82.9733 101.499 82.12C100.699 81.24 99.5124 80.8 97.9391 80.8C96.8191 80.8 95.8857 81.08 95.1391 81.64C94.3924 82.2 93.8591 82.9467 93.5391 83.88H88.1791V66.76H106.259V71.68ZM112.401 81.04C112.401 76.4267 113.228 72.8133 114.881 70.2C116.561 67.5867 119.335 66.28 123.201 66.28C127.068 66.28 129.828 67.5867 131.481 70.2C133.161 72.8133 134.001 76.4267 134.001 81.04C134.001 85.68 133.161 89.32 131.481 91.96C129.828 94.6 127.068 95.92 123.201 95.92C119.335 95.92 116.561 94.6 114.881 91.96C113.228 89.32 112.401 85.68 112.401 81.04ZM128.481 81.04C128.481 79.0667 128.348 77.4133 128.081 76.08C127.841 74.72 127.335 73.6133 126.561 72.76C125.815 71.9067 124.695 71.48 123.201 71.48C121.708 71.48 120.575 71.9067 119.801 72.76C119.055 73.6133 118.548 74.72 118.281 76.08C118.041 77.4133 117.921 79.0667 117.921 81.04C117.921 83.0667 118.041 84.7733 118.281 86.16C118.521 87.52 119.028 88.6267 119.801 89.48C120.575 90.3067 121.708 90.72 123.201 90.72C124.695 90.72 125.828 90.3067 126.601 89.48C127.375 88.6267 127.881 87.52 128.121 86.16C128.361 84.7733 128.481 83.0667 128.481 81.04ZM138.261 81.04C138.261 76.4267 139.087 72.8133 140.741 70.2C142.421 67.5867 145.194 66.28 149.061 66.28C152.927 66.28 155.687 67.5867 157.341 70.2C159.021 72.8133 159.861 76.4267 159.861 81.04C159.861 85.68 159.021 89.32 157.341 91.96C155.687 94.6 152.927 95.92 149.061 95.92C145.194 95.92 142.421 94.6 140.741 91.96C139.087 89.32 138.261 85.68 138.261 81.04ZM154.341 81.04C154.341 79.0667 154.207 77.4133 153.941 76.08C153.701 74.72 153.194 73.6133 152.421 72.76C151.674 71.9067 150.554 71.48 149.061 71.48C147.567 71.48 146.434 71.9067 145.661 72.76C144.914 73.6133 144.407 74.72 144.141 76.08C143.901 77.4133 143.781 79.0667 143.781 81.04C143.781 83.0667 143.901 84.7733 144.141 86.16C144.381 87.52 144.887 88.6267 145.661 89.48C146.434 90.3067 147.567 90.72 149.061 90.72C150.554 90.72 151.687 90.3067 152.461 89.48C153.234 88.6267 153.741 87.52 153.981 86.16C154.221 84.7733 154.341 83.0667 154.341 81.04ZM185.68 84.2H178.12V91.96H172.84V84.2H165.28V79.32H172.84V71.56H178.12V79.32H185.68V84.2ZM111.017 105.55V117.8C111.017 119.5 110.525 120.825 109.542 121.775C108.558 122.708 107.242 123.175 105.592 123.175C103.925 123.175 102.575 122.692 101.542 121.725C100.525 120.758 100.017 119.408 100.017 117.675H103.517C103.533 118.425 103.708 119.008 104.042 119.425C104.392 119.842 104.892 120.05 105.542 120.05C106.175 120.05 106.658 119.85 106.992 119.45C107.325 119.05 107.492 118.5 107.492 117.8V105.55H111.017ZM121.25 123.225C119.916 123.225 118.716 122.933 117.65 122.35C116.583 121.75 115.741 120.908 115.125 119.825C114.525 118.742 114.225 117.492 114.225 116.075C114.225 114.658 114.533 113.408 115.15 112.325C115.783 111.242 116.641 110.408 117.725 109.825C118.808 109.225 120.016 108.925 121.35 108.925C122.683 108.925 123.891 109.225 124.975 109.825C126.058 110.408 126.908 111.242 127.525 112.325C128.158 113.408 128.475 114.658 128.475 116.075C128.475 117.492 128.15 118.742 127.5 119.825C126.866 120.908 126 121.75 124.9 122.35C123.816 122.933 122.6 123.225 121.25 123.225ZM121.25 120.175C121.883 120.175 122.475 120.025 123.025 119.725C123.591 119.408 124.041 118.942 124.375 118.325C124.708 117.708 124.875 116.958 124.875 116.075C124.875 114.758 124.525 113.75 123.825 113.05C123.141 112.333 122.3 111.975 121.3 111.975C120.3 111.975 119.458 112.333 118.775 113.05C118.108 113.75 117.775 114.758 117.775 116.075C117.775 117.392 118.1 118.408 118.75 119.125C119.416 119.825 120.25 120.175 121.25 120.175ZM134.542 111.175C134.992 110.508 135.609 109.967 136.392 109.55C137.192 109.133 138.1 108.925 139.117 108.925C140.3 108.925 141.367 109.217 142.317 109.8C143.284 110.383 144.042 111.217 144.592 112.3C145.159 113.367 145.442 114.608 145.442 116.025C145.442 117.442 145.159 118.7 144.592 119.8C144.042 120.883 143.284 121.725 142.317 122.325C141.367 122.925 140.3 123.225 139.117 123.225C138.084 123.225 137.175 123.025 136.392 122.625C135.625 122.208 135.009 121.675 134.542 121.025V123H131.042V104.5H134.542V111.175ZM141.867 116.025C141.867 115.192 141.692 114.475 141.342 113.875C141.009 113.258 140.559 112.792 139.992 112.475C139.442 112.158 138.842 112 138.192 112C137.559 112 136.959 112.167 136.392 112.5C135.842 112.817 135.392 113.283 135.042 113.9C134.709 114.517 134.542 115.242 134.542 116.075C134.542 116.908 134.709 117.633 135.042 118.25C135.392 118.867 135.842 119.342 136.392 119.675C136.959 119.992 137.559 120.15 138.192 120.15C138.842 120.15 139.442 119.983 139.992 119.65C140.559 119.317 141.009 118.842 141.342 118.225C141.692 117.608 141.867 116.875 141.867 116.025ZM153.285 123.225C152.152 123.225 151.135 123.025 150.235 122.625C149.335 122.208 148.619 121.65 148.085 120.95C147.569 120.25 147.285 119.475 147.235 118.625H150.76C150.827 119.158 151.085 119.6 151.535 119.95C152.002 120.3 152.577 120.475 153.26 120.475C153.927 120.475 154.444 120.342 154.81 120.075C155.194 119.808 155.385 119.467 155.385 119.05C155.385 118.6 155.152 118.267 154.685 118.05C154.235 117.817 153.51 117.567 152.51 117.3C151.477 117.05 150.627 116.792 149.96 116.525C149.31 116.258 148.744 115.85 148.26 115.3C147.794 114.75 147.56 114.008 147.56 113.075C147.56 112.308 147.777 111.608 148.21 110.975C148.66 110.342 149.294 109.842 150.11 109.475C150.944 109.108 151.919 108.925 153.035 108.925C154.685 108.925 156.002 109.342 156.985 110.175C157.969 110.992 158.51 112.1 158.61 113.5H155.26C155.21 112.95 154.977 112.517 154.56 112.2C154.16 111.867 153.619 111.7 152.935 111.7C152.302 111.7 151.81 111.817 151.46 112.05C151.127 112.283 150.96 112.608 150.96 113.025C150.96 113.492 151.194 113.85 151.66 114.1C152.127 114.333 152.852 114.575 153.835 114.825C154.835 115.075 155.66 115.333 156.31 115.6C156.96 115.867 157.519 116.283 157.985 116.85C158.469 117.4 158.719 118.133 158.735 119.05C158.735 119.85 158.51 120.567 158.06 121.2C157.627 121.833 156.994 122.333 156.16 122.7C155.344 123.05 154.385 123.225 153.285 123.225Z" fill="black"/>
</svg>
