<svg width="259" height="190" viewBox="0 0 259 190" fill="none" xmlns="http://www.w3.org/2000/svg">
<circle cx="126" cy="95" r="93.5" stroke="#D39C32" stroke-width="3"/>
<path d="M99.013 71.68H86.053V78.52C86.613 77.8267 87.413 77.2667 88.453 76.84C89.493 76.3867 90.5996 76.16 91.773 76.16C93.9063 76.16 95.653 76.6267 97.013 77.56C98.373 78.4933 99.3596 79.6933 99.973 81.16C100.586 82.6 100.893 84.1467 100.893 85.8C100.893 88.8667 100.013 91.3333 98.253 93.2C96.5196 95.0667 94.0396 96 90.813 96C87.773 96 85.3463 95.24 83.533 93.72C81.7196 92.2 80.693 90.2133 80.453 87.76H85.893C86.133 88.8267 86.6663 89.68 87.493 90.32C88.3463 90.96 89.4263 91.28 90.733 91.28C92.3063 91.28 93.493 90.7867 94.293 89.8C95.093 88.8133 95.493 87.5067 95.493 85.88C95.493 84.2267 95.0796 82.9733 94.253 82.12C93.453 81.24 92.2663 80.8 90.693 80.8C89.573 80.8 88.6396 81.08 87.893 81.64C87.1463 82.2 86.613 82.9467 86.293 83.88H80.933V66.76H99.013V71.68ZM105.155 81.04C105.155 76.4267 105.982 72.8133 107.635 70.2C109.315 67.5867 112.088 66.28 115.955 66.28C119.822 66.28 122.582 67.5867 124.235 70.2C125.915 72.8133 126.755 76.4267 126.755 81.04C126.755 85.68 125.915 89.32 124.235 91.96C122.582 94.6 119.822 95.92 115.955 95.92C112.088 95.92 109.315 94.6 107.635 91.96C105.982 89.32 105.155 85.68 105.155 81.04ZM121.235 81.04C121.235 79.0667 121.102 77.4133 120.835 76.08C120.595 74.72 120.088 73.6133 119.315 72.76C118.568 71.9067 117.448 71.48 115.955 71.48C114.462 71.48 113.328 71.9067 112.555 72.76C111.808 73.6133 111.302 74.72 111.035 76.08C110.795 77.4133 110.675 79.0667 110.675 81.04C110.675 83.0667 110.795 84.7733 111.035 86.16C111.275 87.52 111.782 88.6267 112.555 89.48C113.328 90.3067 114.462 90.72 115.955 90.72C117.448 90.72 118.582 90.3067 119.355 89.48C120.128 88.6267 120.635 87.52 120.875 86.16C121.115 84.7733 121.235 83.0667 121.235 81.04ZM131.015 81.04C131.015 76.4267 131.841 72.8133 133.495 70.2C135.175 67.5867 137.948 66.28 141.815 66.28C145.681 66.28 148.441 67.5867 150.095 70.2C151.775 72.8133 152.615 76.4267 152.615 81.04C152.615 85.68 151.775 89.32 150.095 91.96C148.441 94.6 145.681 95.92 141.815 95.92C137.948 95.92 135.175 94.6 133.495 91.96C131.841 89.32 131.015 85.68 131.015 81.04ZM147.095 81.04C147.095 79.0667 146.961 77.4133 146.695 76.08C146.455 74.72 145.948 73.6133 145.175 72.76C144.428 71.9067 143.308 71.48 141.815 71.48C140.321 71.48 139.188 71.9067 138.415 72.76C137.668 73.6133 137.161 74.72 136.895 76.08C136.655 77.4133 136.535 79.0667 136.535 81.04C136.535 83.0667 136.655 84.7733 136.895 86.16C137.135 87.52 137.641 88.6267 138.415 89.48C139.188 90.3067 140.321 90.72 141.815 90.72C143.308 90.72 144.441 90.3067 145.215 89.48C145.988 88.6267 146.495 87.52 146.735 86.16C146.975 84.7733 147.095 83.0667 147.095 81.04ZM178.434 84.2H170.874V91.96H165.594V84.2H158.034V79.32H165.594V71.56H170.874V79.32H178.434V84.2ZM106.842 105.55V123H103.342V111.65L98.6668 123H96.0168L91.3168 111.65V123H87.8168V105.55H91.7918L97.3418 118.525L102.892 105.55H106.842ZM109.402 116.025C109.402 114.625 109.677 113.383 110.227 112.3C110.794 111.217 111.552 110.383 112.502 109.8C113.469 109.217 114.544 108.925 115.727 108.925C116.76 108.925 117.66 109.133 118.427 109.55C119.21 109.967 119.835 110.492 120.302 111.125V109.15H123.827V123H120.302V120.975C119.852 121.625 119.227 122.167 118.427 122.6C117.644 123.017 116.735 123.225 115.702 123.225C114.535 123.225 113.469 122.925 112.502 122.325C111.552 121.725 110.794 120.883 110.227 119.8C109.677 118.7 109.402 117.442 109.402 116.025ZM120.302 116.075C120.302 115.225 120.135 114.5 119.802 113.9C119.469 113.283 119.019 112.817 118.452 112.5C117.885 112.167 117.277 112 116.627 112C115.977 112 115.377 112.158 114.827 112.475C114.277 112.792 113.827 113.258 113.477 113.875C113.144 114.475 112.977 115.192 112.977 116.025C112.977 116.858 113.144 117.592 113.477 118.225C113.827 118.842 114.277 119.317 114.827 119.65C115.394 119.983 115.994 120.15 116.627 120.15C117.277 120.15 117.885 119.992 118.452 119.675C119.019 119.342 119.469 118.875 119.802 118.275C120.135 117.658 120.302 116.925 120.302 116.075ZM135.046 108.95C136.096 108.95 137.029 109.183 137.846 109.65C138.662 110.1 139.296 110.775 139.746 111.675C140.212 112.558 140.446 113.625 140.446 114.875V123H136.946V115.35C136.946 114.25 136.671 113.408 136.121 112.825C135.571 112.225 134.821 111.925 133.871 111.925C132.904 111.925 132.137 112.225 131.571 112.825C131.021 113.408 130.746 114.25 130.746 115.35V123H127.246V104.5H130.746V110.875C131.196 110.275 131.796 109.808 132.546 109.475C133.296 109.125 134.129 108.95 135.046 108.95ZM142.874 116.025C142.874 114.625 143.149 113.383 143.699 112.3C144.265 111.217 145.024 110.383 145.974 109.8C146.94 109.217 148.015 108.925 149.199 108.925C150.232 108.925 151.132 109.133 151.899 109.55C152.682 109.967 153.307 110.492 153.774 111.125V109.15H157.299V123H153.774V120.975C153.324 121.625 152.699 122.167 151.899 122.6C151.115 123.017 150.207 123.225 149.174 123.225C148.007 123.225 146.94 122.925 145.974 122.325C145.024 121.725 144.265 120.883 143.699 119.8C143.149 118.7 142.874 117.442 142.874 116.025ZM153.774 116.075C153.774 115.225 153.607 114.5 153.274 113.9C152.94 113.283 152.49 112.817 151.924 112.5C151.357 112.167 150.749 112 150.099 112C149.449 112 148.849 112.158 148.299 112.475C147.749 112.792 147.299 113.258 146.949 113.875C146.615 114.475 146.449 115.192 146.449 116.025C146.449 116.858 146.615 117.592 146.949 118.225C147.299 118.842 147.749 119.317 148.299 119.65C148.865 119.983 149.465 120.15 150.099 120.15C150.749 120.15 151.357 119.992 151.924 119.675C152.49 119.342 152.94 118.875 153.274 118.275C153.607 117.658 153.774 116.925 153.774 116.075ZM164.217 104.5V123H160.717V104.5H164.217ZM171.175 104.5V123H167.675V104.5H171.175Z" fill="black"/>
</svg>
