<svg width="259" height="190" viewBox="0 0 259 190" fill="none" xmlns="http://www.w3.org/2000/svg">
<circle cx="126" cy="95" r="93.5" stroke="#D39C32" stroke-width="3"/>
<path d="M86.0833 71.68H73.1233V78.52C73.6833 77.8267 74.4833 77.2667 75.5233 76.84C76.5633 76.3867 77.6699 76.16 78.8433 76.16C80.9766 76.16 82.7233 76.6267 84.0833 77.56C85.4433 78.4933 86.4299 79.6933 87.0433 81.16C87.6566 82.6 87.9633 84.1467 87.9633 85.8C87.9633 88.8667 87.0833 91.3333 85.3233 93.2C83.5899 95.0667 81.1099 96 77.8833 96C74.8433 96 72.4166 95.24 70.6033 93.72C68.7899 92.2 67.7633 90.2133 67.5233 87.76H72.9633C73.2033 88.8267 73.7366 89.68 74.5633 90.32C75.4166 90.96 76.4966 91.28 77.8033 91.28C79.3766 91.28 80.5633 90.7867 81.3633 89.8C82.1633 88.8133 82.5633 87.5067 82.5633 85.88C82.5633 84.2267 82.1499 82.9733 81.3233 82.12C80.5233 81.24 79.3366 80.8 77.7633 80.8C76.6433 80.8 75.7099 81.08 74.9633 81.64C74.2166 82.2 73.6833 82.9467 73.3633 83.88H68.0033V66.76H86.0833V71.68ZM92.2255 81.04C92.2255 76.4267 93.0521 72.8133 94.7055 70.2C96.3855 67.5867 99.1588 66.28 103.025 66.28C106.892 66.28 109.652 67.5867 111.305 70.2C112.985 72.8133 113.825 76.4267 113.825 81.04C113.825 85.68 112.985 89.32 111.305 91.96C109.652 94.6 106.892 95.92 103.025 95.92C99.1588 95.92 96.3855 94.6 94.7055 91.96C93.0521 89.32 92.2255 85.68 92.2255 81.04ZM108.305 81.04C108.305 79.0667 108.172 77.4133 107.905 76.08C107.665 74.72 107.159 73.6133 106.385 72.76C105.639 71.9067 104.519 71.48 103.025 71.48C101.532 71.48 100.399 71.9067 99.6255 72.76C98.8788 73.6133 98.3721 74.72 98.1055 76.08C97.8655 77.4133 97.7455 79.0667 97.7455 81.04C97.7455 83.0667 97.8655 84.7733 98.1055 86.16C98.3455 87.52 98.8521 88.6267 99.6255 89.48C100.399 90.3067 101.532 90.72 103.025 90.72C104.519 90.72 105.652 90.3067 106.425 89.48C107.199 88.6267 107.705 87.52 107.945 86.16C108.185 84.7733 108.305 83.0667 108.305 81.04ZM118.085 81.04C118.085 76.4267 118.912 72.8133 120.565 70.2C122.245 67.5867 125.018 66.28 128.885 66.28C132.752 66.28 135.512 67.5867 137.165 70.2C138.845 72.8133 139.685 76.4267 139.685 81.04C139.685 85.68 138.845 89.32 137.165 91.96C135.512 94.6 132.752 95.92 128.885 95.92C125.018 95.92 122.245 94.6 120.565 91.96C118.912 89.32 118.085 85.68 118.085 81.04ZM134.165 81.04C134.165 79.0667 134.032 77.4133 133.765 76.08C133.525 74.72 133.018 73.6133 132.245 72.76C131.498 71.9067 130.378 71.48 128.885 71.48C127.392 71.48 126.258 71.9067 125.485 72.76C124.738 73.6133 124.232 74.72 123.965 76.08C123.725 77.4133 123.605 79.0667 123.605 81.04C123.605 83.0667 123.725 84.7733 123.965 86.16C124.205 87.52 124.712 88.6267 125.485 89.48C126.258 90.3067 127.392 90.72 128.885 90.72C130.378 90.72 131.512 90.3067 132.285 89.48C133.058 88.6267 133.565 87.52 133.805 86.16C134.045 84.7733 134.165 83.0667 134.165 81.04ZM143.944 81.04C143.944 76.4267 144.771 72.8133 146.424 70.2C148.104 67.5867 150.878 66.28 154.744 66.28C158.611 66.28 161.371 67.5867 163.024 70.2C164.704 72.8133 165.544 76.4267 165.544 81.04C165.544 85.68 164.704 89.32 163.024 91.96C161.371 94.6 158.611 95.92 154.744 95.92C150.878 95.92 148.104 94.6 146.424 91.96C144.771 89.32 143.944 85.68 143.944 81.04ZM160.024 81.04C160.024 79.0667 159.891 77.4133 159.624 76.08C159.384 74.72 158.878 73.6133 158.104 72.76C157.358 71.9067 156.238 71.48 154.744 71.48C153.251 71.48 152.118 71.9067 151.344 72.76C150.598 73.6133 150.091 74.72 149.824 76.08C149.584 77.4133 149.464 79.0667 149.464 81.04C149.464 83.0667 149.584 84.7733 149.824 86.16C150.064 87.52 150.571 88.6267 151.344 89.48C152.118 90.3067 153.251 90.72 154.744 90.72C156.238 90.72 157.371 90.3067 158.144 89.48C158.918 88.6267 159.424 87.52 159.664 86.16C159.904 84.7733 160.024 83.0667 160.024 81.04ZM191.364 84.2H183.804V91.96H178.524V84.2H170.964V79.32H178.524V71.56H183.804V79.32H191.364V84.2ZM99.5676 105.55V116.35C99.5676 117.533 99.8759 118.442 100.493 119.075C101.109 119.692 101.976 120 103.093 120C104.226 120 105.101 119.692 105.718 119.075C106.334 118.442 106.643 117.533 106.643 116.35V105.55H110.168V116.325C110.168 117.808 109.843 119.067 109.193 120.1C108.559 121.117 107.701 121.883 106.618 122.4C105.551 122.917 104.359 123.175 103.043 123.175C101.743 123.175 100.559 122.917 99.4926 122.4C98.4426 121.883 97.6092 121.117 96.9926 120.1C96.3759 119.067 96.0676 117.808 96.0676 116.325V105.55H99.5676ZM118.849 123.225C117.716 123.225 116.699 123.025 115.799 122.625C114.899 122.208 114.183 121.65 113.649 120.95C113.133 120.25 112.849 119.475 112.799 118.625H116.324C116.391 119.158 116.649 119.6 117.099 119.95C117.566 120.3 118.141 120.475 118.824 120.475C119.491 120.475 120.008 120.342 120.374 120.075C120.758 119.808 120.949 119.467 120.949 119.05C120.949 118.6 120.716 118.267 120.249 118.05C119.799 117.817 119.074 117.567 118.074 117.3C117.041 117.05 116.191 116.792 115.524 116.525C114.874 116.258 114.308 115.85 113.824 115.3C113.358 114.75 113.124 114.008 113.124 113.075C113.124 112.308 113.341 111.608 113.774 110.975C114.224 110.342 114.858 109.842 115.674 109.475C116.508 109.108 117.483 108.925 118.599 108.925C120.249 108.925 121.566 109.342 122.549 110.175C123.533 110.992 124.074 112.1 124.174 113.5H120.824C120.774 112.95 120.541 112.517 120.124 112.2C119.724 111.867 119.183 111.7 118.499 111.7C117.866 111.7 117.374 111.817 117.024 112.05C116.691 112.283 116.524 112.608 116.524 113.025C116.524 113.492 116.758 113.85 117.224 114.1C117.691 114.333 118.416 114.575 119.399 114.825C120.399 115.075 121.224 115.333 121.874 115.6C122.524 115.867 123.083 116.283 123.549 116.85C124.033 117.4 124.283 118.133 124.299 119.05C124.299 119.85 124.074 120.567 123.624 121.2C123.191 121.833 122.558 122.333 121.724 122.7C120.908 123.05 119.949 123.225 118.849 123.225ZM140.047 115.775C140.047 116.275 140.014 116.725 139.947 117.125H129.822C129.906 118.125 130.256 118.908 130.872 119.475C131.489 120.042 132.247 120.325 133.147 120.325C134.447 120.325 135.372 119.767 135.922 118.65H139.697C139.297 119.983 138.531 121.083 137.397 121.95C136.264 122.8 134.872 123.225 133.222 123.225C131.889 123.225 130.689 122.933 129.622 122.35C128.572 121.75 127.747 120.908 127.147 119.825C126.564 118.742 126.272 117.492 126.272 116.075C126.272 114.642 126.564 113.383 127.147 112.3C127.731 111.217 128.547 110.383 129.597 109.8C130.647 109.217 131.856 108.925 133.222 108.925C134.539 108.925 135.714 109.208 136.747 109.775C137.797 110.342 138.606 111.15 139.172 112.2C139.756 113.233 140.047 114.425 140.047 115.775ZM136.422 114.775C136.406 113.875 136.081 113.158 135.447 112.625C134.814 112.075 134.039 111.8 133.122 111.8C132.256 111.8 131.522 112.067 130.922 112.6C130.339 113.117 129.981 113.842 129.847 114.775H136.422ZM146.102 111.3C146.552 110.567 147.135 109.992 147.852 109.575C148.585 109.158 149.419 108.95 150.352 108.95V112.625H149.427C148.327 112.625 147.494 112.883 146.927 113.4C146.377 113.917 146.102 114.817 146.102 116.1V123H142.602V109.15H146.102V111.3ZM158.009 123.225C156.876 123.225 155.859 123.025 154.959 122.625C154.059 122.208 153.343 121.65 152.809 120.95C152.293 120.25 152.009 119.475 151.959 118.625H155.484C155.551 119.158 155.809 119.6 156.259 119.95C156.726 120.3 157.301 120.475 157.984 120.475C158.651 120.475 159.168 120.342 159.534 120.075C159.918 119.808 160.109 119.467 160.109 119.05C160.109 118.6 159.876 118.267 159.409 118.05C158.959 117.817 158.234 117.567 157.234 117.3C156.201 117.05 155.351 116.792 154.684 116.525C154.034 116.258 153.468 115.85 152.984 115.3C152.518 114.75 152.284 114.008 152.284 113.075C152.284 112.308 152.501 111.608 152.934 110.975C153.384 110.342 154.018 109.842 154.834 109.475C155.668 109.108 156.643 108.925 157.759 108.925C159.409 108.925 160.726 109.342 161.709 110.175C162.693 110.992 163.234 112.1 163.334 113.5H159.984C159.934 112.95 159.701 112.517 159.284 112.2C158.884 111.867 158.343 111.7 157.659 111.7C157.026 111.7 156.534 111.817 156.184 112.05C155.851 112.283 155.684 112.608 155.684 113.025C155.684 113.492 155.918 113.85 156.384 114.1C156.851 114.333 157.576 114.575 158.559 114.825C159.559 115.075 160.384 115.333 161.034 115.6C161.684 115.867 162.243 116.283 162.709 116.85C163.193 117.4 163.443 118.133 163.459 119.05C163.459 119.85 163.234 120.567 162.784 121.2C162.351 121.833 161.718 122.333 160.884 122.7C160.068 123.05 159.109 123.225 158.009 123.225Z" fill="black"/>
</svg>
