<svg width="365" height="437" viewBox="0 0 365 437" fill="none" xmlns="http://www.w3.org/2000/svg">
<path d="M331.227 217.46C338.673 156.816 295.548 101.619 234.905 94.1728C174.262 86.7267 119.064 129.852 111.618 190.495C104.172 251.139 147.297 306.336 207.94 313.782C268.584 321.228 323.781 278.103 331.227 217.46Z" fill="#D39C32"/>
<path d="M318.444 204.117C318.519 150.537 275.145 107.041 221.564 106.966C167.984 106.891 124.489 150.266 124.414 203.846C124.339 257.426 167.714 300.922 221.294 300.997C274.874 301.072 318.369 257.697 318.444 204.117Z" fill="#D39C32"/>
<path d="M223.232 281.085C265.82 280.081 299.53 244.744 298.526 202.156C297.523 159.569 262.185 125.858 219.598 126.862C177.01 127.866 143.3 163.203 144.304 205.791C145.307 248.378 180.645 282.088 223.232 281.085Z" fill="#FFFAEF"/>
<path d="M283.126 203.978C283.131 216.185 279.516 228.118 272.738 238.27C265.96 248.422 256.324 256.336 245.048 261.01C233.772 265.685 221.363 266.911 209.391 264.533C197.418 262.154 186.42 256.279 177.787 247.649C169.154 239.02 163.274 228.024 160.891 216.053C158.508 204.081 159.728 191.672 164.398 180.394C169.068 169.116 176.978 159.477 187.127 152.695C197.276 145.912 209.208 142.292 221.415 142.292C237.777 142.292 253.47 148.791 265.042 160.358C276.614 171.926 283.119 187.616 283.126 203.978Z" fill="#D39C32"/>
<path d="M260.411 203.978C260.408 211.691 258.119 219.229 253.832 225.64C249.546 232.051 243.455 237.047 236.329 239.997C229.203 242.946 221.363 243.717 213.799 242.211C206.236 240.704 199.288 236.989 193.836 231.535C188.384 226.081 184.671 219.133 183.167 211.569C181.664 204.004 182.437 196.164 185.389 189.04C188.34 181.915 193.339 175.825 199.751 171.541C206.164 167.256 213.703 164.97 221.415 164.97C226.537 164.97 231.609 165.979 236.341 167.939C241.073 169.9 245.372 172.773 248.994 176.396C252.615 180.018 255.487 184.319 257.446 189.051C259.405 193.784 260.412 198.856 260.411 203.978Z" fill="#FFFAEF"/>
<path d="M238.772 203.978C238.769 207.411 237.749 210.765 235.84 213.618C233.932 216.471 231.22 218.693 228.048 220.005C224.876 221.317 221.387 221.659 218.021 220.988C214.655 220.316 211.563 218.662 209.137 216.234C206.711 213.806 205.059 210.714 204.39 207.347C203.722 203.98 204.066 200.491 205.38 197.32C206.694 194.149 208.919 191.439 211.773 189.533C214.627 187.626 217.982 186.608 221.415 186.608C223.695 186.608 225.953 187.058 228.06 187.931C230.167 188.804 232.081 190.084 233.693 191.697C235.305 193.31 236.583 195.225 237.454 197.332C238.326 199.439 238.774 201.698 238.772 203.978Z" fill="#D39C32"/>
<path d="M74.3268 261.421C75.0843 261.422 75.8345 261.273 76.5341 260.983C77.2338 260.692 77.869 260.266 78.4033 259.729C79.4806 258.636 80.0844 257.162 80.0844 255.627C80.0844 254.092 79.4806 252.619 78.4033 251.525L63.1998 236.142C62.6671 235.604 62.0331 235.178 61.3345 234.886C60.6359 234.595 59.8866 234.445 59.1297 234.445C58.3729 234.445 57.6235 234.595 56.925 234.886C56.2264 235.178 55.5924 235.604 55.0597 236.142C53.9762 237.232 53.3682 238.707 53.3682 240.244C53.3682 241.781 53.9762 243.256 55.0597 244.346L70.2632 259.729C70.7951 260.266 71.4281 260.692 72.1256 260.982C72.8231 261.272 73.5713 261.422 74.3268 261.421Z" fill="#E2A849"/>
<path d="M57.457 246.782L65.5972 238.59L70.8402 243.859L62.7001 252.063L57.457 246.782Z" fill="#D0CFAE"/>
<path d="M14.4369 239.257C17.2972 242.142 20.7008 244.433 24.4511 245.996C28.2014 247.559 32.2241 248.363 36.2872 248.363C40.3502 248.363 44.3729 247.559 48.1232 245.996C51.8735 244.433 55.2771 242.142 58.1374 239.257C63.9328 233.394 67.183 225.483 67.183 217.24C67.183 208.996 63.9328 201.085 58.1374 195.223C55.2771 192.337 51.8735 190.047 48.1232 188.484C44.3729 186.921 40.3502 186.116 36.2872 186.116C32.2241 186.116 28.2014 186.921 24.4511 188.484C20.7008 190.047 17.2972 192.337 14.4369 195.223C8.63534 201.082 5.38086 208.994 5.38086 217.24C5.38086 225.485 8.63534 233.397 14.4369 239.257Z" fill="#008EA7"/>
<path d="M18.1164 239.475C20.462 241.851 23.2564 243.739 26.3372 245.027C29.418 246.315 32.724 246.978 36.0633 246.978C39.4025 246.978 42.7085 246.315 45.7893 245.027C48.8701 243.739 51.6645 241.851 54.0101 239.475C58.7852 234.671 61.4655 228.173 61.4655 221.4C61.4655 214.626 58.7852 208.128 54.0101 203.325C51.6627 200.951 48.8678 199.067 45.7872 197.781C42.7066 196.495 39.4015 195.833 36.0633 195.833C32.725 195.833 29.4199 196.495 26.3393 197.781C23.2587 199.067 20.4638 200.951 18.1164 203.325C13.3599 208.138 10.6924 214.633 10.6924 221.4C10.6924 228.167 13.3599 234.661 18.1164 239.475Z" fill="#70CACD"/>
<path d="M70.1355 256.755L75.4939 251.358C79.1089 247.705 85.4287 248.346 89.8641 252.82L118.63 281.816C123.066 286.29 123.758 292.649 120.079 296.302L114.72 301.686C111.105 305.34 104.786 304.699 100.35 300.225L71.5968 271.241C67.1614 266.767 66.5205 260.408 70.1355 256.755Z" fill="#E2A849"/>
<path d="M75.4946 251.358C79.1096 247.705 85.4295 248.346 89.8649 252.82L118.631 281.816C123.067 286.29 123.759 292.649 120.08 296.302L117.4 298.994L72.8154 254.05L75.4946 251.358Z" fill="#D39C32"/>
<path d="M75.4296 275.1L93.6969 256.691L89.864 252.82L71.5967 271.241L75.4296 275.1Z" fill="#B32D2F"/>
<path d="M99.4657 299.34L117.746 280.919L113.913 277.06L95.6328 295.468L99.4657 299.34Z" fill="#B32D2F"/>
<path d="M75.1357 275.381L84.5577 265.895L80.7248 262.037L71.3027 271.523L75.1357 275.381Z" fill="#F05757"/>
<path d="M99.1845 299.622L108.607 290.123L104.774 286.265L95.3516 295.751L99.1845 299.622Z" fill="#F05757"/>
<path d="M36.2804 253.819C41.0517 253.827 45.7765 252.883 50.1787 251.043C54.5809 249.203 58.572 246.503 61.9187 243.103C68.7364 236.216 72.5608 226.918 72.5608 217.227C72.5608 207.537 68.7364 198.238 61.9187 191.352C58.5626 187.966 54.569 185.278 50.1685 183.444C45.768 181.61 41.0478 180.666 36.2804 180.666C31.513 180.666 26.7928 181.61 22.3923 183.444C17.9918 185.278 13.9982 187.966 10.6421 191.352C3.82442 198.238 0 207.537 0 217.227C0 226.918 3.82442 236.216 10.6421 243.103C13.9888 246.503 17.9799 249.203 22.3821 251.043C26.7843 252.883 31.5091 253.827 36.2804 253.819ZM36.2804 190.057C39.8273 190.051 43.3399 190.751 46.6129 192.118C49.8858 193.485 52.8535 195.491 55.3425 198.018C60.4121 203.133 63.2563 210.044 63.2563 217.246C63.2563 224.449 60.4121 231.359 55.3425 236.475C52.8489 238.993 49.881 240.992 46.6102 242.356C43.3394 243.721 39.8307 244.423 36.2868 244.423C32.743 244.423 29.2342 243.721 25.9635 242.356C22.6927 240.992 19.7247 238.993 17.2311 236.475C12.1616 231.359 9.31735 224.449 9.31735 217.246C9.31735 210.044 12.1616 203.133 17.2311 198.018C19.7192 195.494 22.6852 193.491 25.9559 192.127C29.2266 190.762 32.7365 190.063 36.2804 190.07V190.057Z" fill="#E2A849"/>
<path d="M21.2951 228.463C21.672 228.464 22.0453 228.389 22.3931 228.244C22.7409 228.099 23.0562 227.885 23.3206 227.617C23.8623 227.072 24.1663 226.334 24.1663 225.566C24.1663 224.797 23.8623 224.06 23.3206 223.515C20.8921 221.051 19.5307 217.731 19.5307 214.272C19.5307 210.813 20.8921 207.493 23.3206 205.029C23.8615 204.486 24.1652 203.751 24.1652 202.985C24.1652 202.218 23.8615 201.483 23.3206 200.94C23.0556 200.67 22.7395 200.455 22.3906 200.309C22.0417 200.162 21.6671 200.087 21.2887 200.087C20.9103 200.087 20.5357 200.162 20.1869 200.309C19.838 200.455 19.5218 200.67 19.2569 200.94C15.752 204.495 13.7871 209.286 13.7871 214.278C13.7871 219.271 15.752 224.062 19.2569 227.617C19.5236 227.886 19.8412 228.099 20.1911 228.244C20.541 228.39 20.9163 228.464 21.2951 228.463Z" fill="#FDFADB"/>
<path d="M21.9228 235.654C22.184 235.919 22.4953 236.13 22.8386 236.274C23.182 236.417 23.5504 236.491 23.9226 236.491C24.2948 236.491 24.6632 236.417 25.0065 236.274C25.3499 236.13 25.6612 235.919 25.9224 235.654C26.457 235.118 26.7573 234.392 26.7573 233.635C26.7573 232.878 26.457 232.152 25.9224 231.616C25.6612 231.351 25.3499 231.141 25.0065 230.997C24.6632 230.853 24.2948 230.779 23.9226 230.779C23.5504 230.779 23.182 230.853 22.8386 230.997C22.4953 231.141 22.184 231.351 21.9228 231.616C21.3882 232.152 21.0879 232.878 21.0879 233.635C21.0879 234.392 21.3882 235.118 21.9228 235.654Z" fill="#F4EFD7"/>
<path d="M62.6358 86.8882C62.6394 82.8386 63.5919 78.8461 65.4168 75.231C67.2417 71.6158 69.8883 68.4785 73.1444 66.0707C76.4004 63.6628 80.1754 62.0514 84.1665 61.3656C88.1577 60.6798 92.254 60.9387 96.1271 62.1216C100 63.3044 103.542 65.3783 106.469 68.1769C109.396 70.9756 111.627 74.4211 112.982 78.2373C114.337 82.0534 114.779 86.1341 114.273 90.1519C113.767 94.1698 112.326 98.0132 110.067 101.374C102.593 113.001 101.247 129.332 101.247 129.332H75.8139C75.8139 129.332 74.532 113.001 66.9815 101.374C64.1379 97.0787 62.6261 92.0394 62.6358 86.8882Z" fill="#FFFAEF"/>
<path d="M92.3779 124.346C92.8584 124.342 93.3181 124.149 93.6567 123.808C93.9953 123.467 94.1854 123.006 94.1853 122.525V98.7075C94.1097 98.3351 94.1178 97.9506 94.2091 97.5818C94.3003 97.2129 94.4723 96.869 94.7128 96.5748C94.9533 96.2806 95.2561 96.0435 95.5994 95.8807C95.9427 95.7179 96.3179 95.6335 96.6979 95.6335C97.0779 95.6335 97.4531 95.7179 97.7964 95.8807C98.1397 96.0435 98.4425 96.2806 98.683 96.5748C98.9235 96.869 99.0955 97.2129 99.1868 97.5818C99.278 97.9506 99.2861 98.3351 99.2105 98.7075C99.1894 98.9568 99.2203 99.2078 99.3013 99.4445C99.3822 99.6812 99.5115 99.8985 99.6808 100.083C99.8501 100.267 100.056 100.414 100.285 100.515C100.514 100.615 100.761 100.667 101.012 100.667C101.262 100.667 101.509 100.615 101.738 100.515C101.967 100.414 102.173 100.267 102.342 100.083C102.512 99.8985 102.641 99.6812 102.722 99.4445C102.803 99.2078 102.834 98.9568 102.813 98.7075C102.813 97.0858 102.168 95.5305 101.022 94.3837C99.8749 93.237 98.3196 92.5928 96.6979 92.5928C95.0762 92.5928 93.5209 93.237 92.3741 94.3837C91.2274 95.5305 90.5832 97.0858 90.5832 98.7075V122.474C90.5746 122.716 90.6146 122.957 90.7008 123.183C90.7869 123.409 90.9176 123.615 91.0849 123.789C91.2522 123.964 91.4529 124.103 91.675 124.199C91.8971 124.294 92.1361 124.344 92.3779 124.346Z" fill="#599688"/>
<path d="M84.7236 124.346C85.2042 124.343 85.6639 124.149 86.0025 123.808C86.3411 123.467 86.5311 123.006 86.5311 122.526V98.7077C86.5852 97.8732 86.4676 97.0363 86.1854 96.249C85.9033 95.4617 85.4626 94.7407 84.8907 94.1305C84.3188 93.5203 83.6277 93.0339 82.8604 92.7013C82.093 92.3688 81.2655 92.1973 80.4292 92.1973C79.5929 92.1973 78.7654 92.3688 77.998 92.7013C77.2306 93.0339 76.5396 93.5203 75.9677 94.1305C75.3958 94.7407 74.9551 95.4617 74.673 96.249C74.3908 97.0363 74.2731 97.8732 74.3273 98.7077C74.3256 98.9451 74.3707 99.1805 74.4599 99.4004C74.5492 99.6204 74.6809 99.8206 74.8476 99.9896C75.0143 100.159 75.2126 100.293 75.4312 100.386C75.6499 100.478 75.8846 100.526 76.122 100.528C76.5969 100.518 77.0487 100.321 77.3798 99.9807C77.7108 99.64 77.8945 99.1827 77.891 98.7077C77.8207 98.3372 77.8331 97.9557 77.9272 97.5905C78.0213 97.2252 78.1949 96.8853 78.4354 96.5948C78.676 96.3044 78.9777 96.0705 79.319 95.9101C79.6603 95.7496 80.0328 95.6664 80.41 95.6664C80.7871 95.6664 81.1596 95.7496 81.5009 95.9101C81.8422 96.0705 82.1439 96.3044 82.3845 96.5948C82.6251 96.8853 82.7986 97.2252 82.8927 97.5905C82.9868 97.9557 82.9992 98.3372 82.9289 98.7077V122.474C82.9203 122.716 82.9603 122.957 83.0465 123.183C83.1327 123.409 83.2633 123.615 83.4307 123.79C83.598 123.964 83.7987 124.103 84.0207 124.199C84.2428 124.294 84.4818 124.344 84.7236 124.346Z" fill="#599688"/>
<path d="M88.5577 55.4554C89.3216 55.4486 90.052 55.1404 90.5897 54.5978C91.1275 54.0553 91.4292 53.3222 91.4292 52.5583V46.5589C91.4555 46.1648 91.4006 45.7695 91.2679 45.3975C91.1352 45.0255 90.9275 44.6848 90.6577 44.3963C90.3878 44.1079 90.0617 43.878 89.6993 43.7207C89.337 43.5635 88.9463 43.4824 88.5513 43.4824C88.1563 43.4824 87.7656 43.5635 87.4033 43.7207C87.0409 43.878 86.7148 44.1079 86.4449 44.3963C86.1751 44.6848 85.9674 45.0255 85.8347 45.3975C85.702 45.7695 85.6471 46.1648 85.6734 46.5589V52.5583C85.6734 53.3244 85.9769 54.0594 86.5174 54.6023C87.058 55.1453 87.7916 55.452 88.5577 55.4554Z" fill="#D39C32"/>
<path d="M71.3656 60.5705C71.8786 60.5665 72.3813 60.4264 72.8224 60.1645C73.2635 59.9026 73.6271 59.5283 73.8761 59.0798C74.1252 58.6313 74.2506 58.1247 74.2397 57.6119C74.2288 57.099 74.0819 56.5982 73.8141 56.1607L70.7247 51.033C70.5297 50.7077 70.2723 50.4242 69.9672 50.1989C69.6621 49.9735 69.3154 49.8109 68.9472 49.7203C68.5789 49.6297 68.1963 49.613 67.8215 49.6711C67.4467 49.7292 67.0871 49.861 66.7635 50.0588C66.1121 50.4641 65.6461 51.1094 65.4662 51.8552C65.2864 52.6011 65.407 53.3878 65.8021 54.0455L68.9043 59.1732C69.159 59.5989 69.5195 59.9513 69.9509 60.1962C70.3822 60.441 70.8696 60.57 71.3656 60.5705Z" fill="#D39C32"/>
<path d="M58.0218 71.8513C58.5843 71.8513 59.1345 71.6861 59.604 71.3762C60.0735 71.0662 60.4415 70.6252 60.6625 70.1079C60.8199 69.7581 60.9063 69.3805 60.9166 68.9971C60.927 68.6137 60.861 68.232 60.7227 67.8743C60.5844 67.5165 60.3764 67.1898 60.1108 66.913C59.8452 66.6363 59.5273 66.415 59.1755 66.2621L53.7274 63.865C53.0281 63.5732 52.2421 63.5684 51.5393 63.8514C50.8365 64.1344 50.2733 64.6827 49.9714 65.3776C49.6614 66.0866 49.6452 66.8896 49.9263 67.6105C50.2075 68.3314 50.763 68.9114 51.4712 69.2234L56.9193 71.6205C57.2671 71.7722 57.6424 71.8507 58.0218 71.8513Z" fill="#D39C32"/>
<path d="M46.8827 89.0419H47.1006L53.0359 88.5804C53.8042 88.5141 54.5148 88.1453 55.0112 87.5551C55.5077 86.9649 55.7493 86.2017 55.683 85.4333C55.6167 84.6649 55.2479 83.9544 54.6577 83.4579C54.0675 82.9615 53.3043 82.7199 52.5359 82.7862L46.6135 83.2477C45.8451 83.2766 45.1197 83.6095 44.5968 84.1732C44.0739 84.737 43.7964 85.4854 43.8253 86.2537C43.8542 87.0221 44.1871 87.7475 44.7509 88.2704C45.3146 88.7933 46.063 89.0708 46.8314 89.0419H46.8827Z" fill="#D39C32"/>
<path d="M51.5359 107.847C52.0414 107.846 52.5373 107.709 52.9716 107.45L58.0993 104.463C58.7615 104.075 59.2436 103.441 59.4404 102.699C59.6373 101.957 59.5331 101.167 59.1505 100.502C58.9642 100.173 58.7146 99.8844 58.4161 99.6525C58.1175 99.4207 57.776 99.2504 57.4112 99.1515C57.0464 99.0525 56.6655 99.0269 56.2908 99.0761C55.916 99.1253 55.5547 99.2483 55.2278 99.438L50.1001 102.425C49.4323 102.811 48.945 103.446 48.7455 104.192C48.546 104.937 48.6505 105.731 49.0361 106.399C49.2886 106.839 49.6527 107.204 50.0916 107.459C50.5304 107.713 51.0286 107.847 51.5359 107.847Z" fill="#D39C32"/>
<path d="M106.709 60.5705C107.205 60.57 107.692 60.441 108.124 60.1962C108.555 59.9513 108.915 59.5989 109.17 59.1732L112.26 54.0455C112.658 53.3887 112.781 52.6009 112.6 51.854C112.42 51.1071 111.952 50.4618 111.298 50.0588C110.974 49.861 110.615 49.7292 110.24 49.6711C109.865 49.613 109.483 49.6297 109.114 49.7203C108.746 49.8109 108.399 49.9735 108.094 50.1989C107.789 50.4242 107.532 50.7077 107.337 51.033L104.248 56.1607C103.979 56.5991 103.832 57.1011 103.822 57.615C103.812 58.129 103.938 58.6365 104.189 59.0853C104.439 59.5342 104.805 59.9084 105.248 60.1693C105.69 60.4303 106.195 60.5688 106.709 60.5705Z" fill="#D39C32"/>
<path d="M120.041 71.8513C120.439 71.852 120.832 71.769 121.195 71.6078L126.643 69.2234C126.998 69.0741 127.32 68.8555 127.59 68.5803C127.859 68.3052 128.071 67.979 128.213 67.6209C128.355 67.2628 128.425 66.8799 128.417 66.4947C128.409 66.1096 128.325 65.7298 128.169 65.3777C128.02 65.0225 127.801 64.7009 127.525 64.432C127.249 64.1631 126.922 63.9524 126.564 63.8125C126.205 63.6725 125.822 63.6062 125.437 63.6174C125.052 63.6287 124.673 63.7172 124.323 63.8778L118.862 66.275C118.156 66.5893 117.603 67.1703 117.325 67.891C117.046 68.6116 117.064 69.4133 117.375 70.1207C117.602 70.6377 117.976 71.0769 118.449 71.3844C118.923 71.6918 119.476 71.8542 120.041 71.8513Z" fill="#D39C32"/>
<path d="M131.194 89.0418C131.962 89.0707 132.71 88.7932 133.274 88.2703C133.838 87.7474 134.171 87.022 134.2 86.2536C134.229 85.4853 133.951 84.7369 133.428 84.1731C132.905 83.6094 132.18 83.2764 131.412 83.2475L125.476 82.786C124.71 82.7265 123.951 82.974 123.367 83.4741C122.782 83.9741 122.421 84.6858 122.361 85.4524C122.302 86.2191 122.549 86.978 123.049 87.5622C123.549 88.1464 124.261 88.508 125.028 88.5675L130.963 89.029L131.194 89.0418Z" fill="#D39C32"/>
<path d="M126.54 107.847C127.045 107.847 127.542 107.713 127.979 107.459C128.416 107.204 128.777 106.839 129.027 106.399C129.409 105.733 129.513 104.944 129.317 104.202C129.12 103.46 128.638 102.826 127.975 102.438L122.848 99.4508C122.185 99.1127 121.417 99.0429 120.703 99.2558C119.99 99.4688 119.386 99.9481 119.016 100.595C118.647 101.241 118.541 102.005 118.719 102.727C118.898 103.45 119.348 104.076 119.976 104.476L125.104 107.463C125.539 107.718 126.035 107.851 126.54 107.847Z" fill="#D39C32"/>
<path d="M89.3891 429.326L174.329 343.72L151.639 320.851L66.6992 406.457L89.3891 429.326Z" fill="#E2A849"/>
<path d="M151.755 331.58L154.409 328.914L149.025 323.479L146.371 326.158L151.755 331.58Z" fill="#B5802A"/>
<path d="M141.423 342.003L144.077 339.323L138.693 333.901L136.039 336.567L141.423 342.003Z" fill="#B5802A"/>
<path d="M150.268 340.528L152.922 337.849L143.846 328.696L141.192 331.375L150.268 340.528Z" fill="#B5802A"/>
<path d="M130.578 352.937L133.218 350.257L127.834 344.835L125.181 347.501L130.578 352.937Z" fill="#B5802A"/>
<path d="M139.424 351.462L142.077 348.783L132.989 339.63L130.335 342.31L139.424 351.462Z" fill="#B5802A"/>
<path d="M119.617 363.974L122.271 361.295L116.887 355.86L114.233 358.539L119.617 363.974Z" fill="#B5802A"/>
<path d="M128.475 362.5L131.129 359.82L122.04 350.667L119.399 353.347L128.475 362.5Z" fill="#B5802A"/>
<path d="M108.773 374.909L111.426 372.23L106.042 366.794L103.389 369.474L108.773 374.909Z" fill="#B5802A"/>
<path d="M117.618 373.435L120.272 370.755L111.196 361.603L108.542 364.282L117.618 373.435Z" fill="#B5802A"/>
<path d="M97.2346 386.536L99.8882 383.869L94.4913 378.434L91.8506 381.1L97.2346 386.536Z" fill="#B5802A"/>
<path d="M106.081 385.062L108.734 382.396L99.6456 373.243L97.0049 375.909L106.081 385.062Z" fill="#B5802A"/>
<path d="M86.3772 397.471L89.0308 394.804L83.6467 389.369L80.9932 392.048L86.3772 397.471Z" fill="#B5802A"/>
<path d="M95.2362 395.997L97.8898 393.33L88.801 384.177L86.1475 386.844L95.2362 395.997Z" fill="#B5802A"/>
<path d="M75.5842 408.354L78.2378 405.675L72.8538 400.252L70.2002 402.919L75.5842 408.354Z" fill="#B5802A"/>
<path d="M84.4413 406.88L87.0821 404.201L78.0061 395.048L75.3525 397.727L84.4413 406.88Z" fill="#B5802A"/>
<path d="M242.861 354.475C250.941 354.41 258.859 356.74 265.617 361.17C272.375 365.6 277.669 371.932 280.832 379.368C283.995 386.804 284.885 395.009 283.389 402.95C281.894 410.891 278.08 418.211 272.43 423.987C266.779 429.763 259.544 433.736 251.638 435.404C243.731 437.073 235.508 436.363 228.005 433.363C220.502 430.363 214.056 425.209 209.479 418.55C204.902 411.891 202.4 404.025 202.288 395.945H242.861V354.475Z" fill="#D39C32"/>
<path d="M236.875 349.476V390.984H196.302C196.302 390.792 196.302 390.6 196.302 390.408C196.277 385.055 197.306 379.751 199.332 374.797C201.358 369.843 204.34 365.336 208.107 361.535C211.875 357.734 216.355 354.712 221.291 352.643C226.227 350.574 231.523 349.498 236.875 349.476Z" fill="#E2A849"/>
<path d="M54.7276 330.875C56.9744 331.863 58.7402 333.698 59.6405 335.981C60.5409 338.264 60.5028 340.811 59.5347 343.066C59.0642 344.186 58.3753 345.202 57.5082 346.053C56.6411 346.904 55.6131 347.575 54.4843 348.024C53.3555 348.474 52.1484 348.695 50.9334 348.673C49.7185 348.652 48.52 348.389 47.4078 347.899C45.1619 346.914 43.3963 345.081 42.4958 342.8C41.5954 340.519 41.633 337.974 42.6006 335.721C43.0727 334.601 43.7623 333.587 44.6294 332.736C45.4965 331.886 46.5238 331.215 47.6519 330.765C48.7799 330.314 49.9862 330.092 51.2008 330.11C52.4154 330.129 53.6141 330.389 54.7276 330.875Z" fill="#D39C32"/>
<path d="M26.1664 324.209L31.294 326.44C33.1878 323.512 35.7047 321.039 38.665 319.197L36.614 313.992C36.2135 312.984 36.2288 311.858 36.6565 310.861C37.0841 309.864 37.8893 309.077 38.8958 308.672C39.3931 308.475 39.9245 308.378 40.4595 308.387C40.9944 308.395 41.5224 308.51 42.0131 308.723C42.5038 308.936 42.9476 309.244 43.319 309.629C43.6904 310.014 43.982 310.469 44.1773 310.967L46.2155 316.095C49.6299 315.362 53.1654 315.406 56.5606 316.223L58.7398 311.095C59.1775 310.118 59.9832 309.353 60.9818 308.967C61.9803 308.58 63.0911 308.603 64.0726 309.031C65.0649 309.468 65.8451 310.278 66.2435 311.286C66.642 312.294 66.6265 313.419 66.2006 314.415L64.0213 319.543C66.9431 321.481 69.3991 324.042 71.2129 327.042L76.3405 324.991C76.8377 324.792 77.3694 324.694 77.9048 324.702C78.4403 324.709 78.9688 324.823 79.46 325.037C79.9511 325.25 80.3951 325.559 80.7662 325.945C81.1373 326.331 81.4282 326.787 81.622 327.286C82.0232 328.292 82.0097 329.417 81.5846 330.414C81.1595 331.41 80.3572 332.199 79.353 332.606L74.2254 334.67C74.9279 338.102 74.8666 341.647 74.0459 345.053L79.1736 347.284C80.1668 347.723 80.9472 348.535 81.3455 349.545C81.7438 350.555 81.728 351.682 81.3015 352.681C81.0921 353.173 80.7873 353.619 80.4047 353.992C80.022 354.366 79.5692 354.661 79.0722 354.858C78.5752 355.056 78.0439 355.154 77.5091 355.145C76.9742 355.137 76.4464 355.022 75.9559 354.809L70.8283 352.565C68.9292 355.464 66.412 357.907 63.4573 359.718L65.5596 365.051C65.9565 366.06 65.9395 367.184 65.5123 368.18C65.0851 369.176 64.2821 369.963 63.2778 370.371C62.7805 370.568 62.2491 370.665 61.7141 370.657C61.1792 370.648 60.6512 370.534 60.1605 370.321C59.6698 370.107 59.226 369.799 58.8546 369.414C58.4832 369.029 58.1915 368.575 57.9963 368.076L55.894 362.718C52.5067 363.431 49.003 363.378 45.6386 362.564L43.3825 367.858C43.1729 368.351 42.8682 368.797 42.4858 369.171C42.1035 369.545 41.651 369.84 41.1543 370.039C40.6576 370.238 40.1266 370.337 39.5916 370.33C39.0567 370.323 38.5283 370.211 38.0369 369.999C37.5374 369.787 37.0848 369.478 36.7052 369.09C36.3257 368.702 36.0266 368.243 35.8252 367.739C35.6238 367.235 35.5242 366.696 35.5319 366.153C35.5397 365.611 35.6548 365.075 35.8705 364.577L38.1394 359.282C35.2576 357.375 32.829 354.859 31.0248 351.911L25.7177 354.039C25.2252 354.249 24.6955 354.357 24.1602 354.357C23.6249 354.357 23.0951 354.249 22.6026 354.039C21.8626 353.715 21.2348 353.18 20.798 352.5C20.3611 351.821 20.1346 351.027 20.147 350.219C20.1593 349.412 20.4099 348.625 20.8672 347.96C21.3246 347.294 21.9685 346.778 22.718 346.476L27.9995 344.361C27.2869 340.976 27.3219 337.476 28.1021 334.106L22.9744 331.862C21.9857 331.418 21.2104 330.605 20.8149 329.596C20.4195 328.587 20.4354 327.463 20.8592 326.465C21.0566 325.967 21.3511 325.512 21.7257 325.128C22.1003 324.744 22.5474 324.438 23.0411 324.228C23.5349 324.018 24.0654 323.908 24.6019 323.905C25.1384 323.902 25.6702 324.005 26.1664 324.209ZM44.9592 353.693C46.8294 354.518 48.8453 354.962 50.889 354.999C52.9327 355.036 54.9633 354.666 56.8621 353.909C58.761 353.152 60.49 352.025 61.9481 350.592C63.4062 349.16 64.5643 347.451 65.3545 345.566C66.9891 341.774 67.0573 337.488 65.5443 333.646C64.0313 329.803 61.0599 326.715 57.2784 325.055C55.4109 324.241 53.4001 323.805 51.3628 323.774C49.3256 323.743 47.3025 324.117 45.411 324.875C43.5195 325.632 41.7972 326.758 40.3443 328.186C38.8914 329.614 37.7367 331.317 36.9473 333.195C35.3122 336.98 35.2365 341.258 36.7366 345.098C38.2368 348.938 41.1916 352.032 44.9592 353.706V353.693Z" fill="#D39C32"/>
<path d="M244.681 24.228H224.196V66.8389H244.681V24.228Z" fill="#F2BB6B"/>
<path d="M218.594 13.9858H198.109V66.8392H218.594V13.9858Z" fill="#3F4D54"/>
<path d="M193.558 0H173.073V66.8391H193.558V0Z" fill="#D39C32"/>
<path d="M364.72 66.9029C364.458 66.2177 364.014 65.617 363.435 65.1653C362.857 64.7135 362.167 64.4279 361.439 64.339L341.377 62.0059L336.069 42.5208C335.849 41.7421 335.403 41.0461 334.787 40.521C334.289 40.0889 333.689 39.7891 333.044 39.6493C332.334 39.4852 331.592 39.5178 330.898 39.7437C330.205 39.9695 329.586 40.3801 329.109 40.9313L282.383 95.3229C281.981 95.7864 281.691 96.3361 281.535 96.9296C281.379 97.5232 281.362 98.1445 281.485 98.7456L285.908 120.346C285.688 121.143 285.717 121.988 285.992 122.767C286.267 123.546 286.775 124.223 287.446 124.704C287.956 125.242 288.611 125.62 289.331 125.794C290.214 126.026 291.15 125.949 291.984 125.576L314.008 126.717C314.62 126.749 315.232 126.642 315.796 126.402C316.36 126.162 316.862 125.796 317.264 125.333L364.041 70.9793C364.513 70.4254 364.826 69.7534 364.946 69.0353C365.065 68.3172 364.987 67.58 364.72 66.9029Z" fill="#D39C32"/>
<path d="M219.184 209.324C217.889 209.336 216.633 208.881 215.646 208.042C215.103 207.575 214.656 207.006 214.333 206.366C214.01 205.727 213.816 205.03 213.762 204.316C213.709 203.601 213.797 202.883 214.021 202.203C214.245 201.522 214.601 200.893 215.069 200.35L337.005 58.5706C337.471 58.0294 338.038 57.5851 338.675 57.2632C339.312 56.9413 340.007 56.7481 340.718 56.6945C341.43 56.641 342.146 56.7281 342.824 56.951C343.502 57.174 344.13 57.5283 344.671 57.9937C345.212 58.4592 345.656 59.0267 345.978 59.6639C346.3 60.301 346.493 60.9954 346.547 61.7072C346.601 62.419 346.513 63.1345 346.29 63.8126C346.068 64.4908 345.713 65.1184 345.248 65.6596L223.274 207.439C222.766 208.027 222.139 208.5 221.433 208.825C220.728 209.15 219.961 209.32 219.184 209.324Z" fill="#FFFAD7"/>
</svg>
