<svg width="48" height="47" viewBox="0 0 48 47" fill="none" xmlns="http://www.w3.org/2000/svg">
<path d="M39.256 23.5979C39.2193 20.6124 38.3303 17.6996 36.6935 15.2024C35.0567 12.7053 32.7406 10.7278 30.0177 9.50294C27.2947 8.27807 24.2784 7.85679 21.3241 8.2887C18.3698 8.72063 15.6004 9.98775 13.3421 11.9409C11.0838 13.894 9.43065 16.4518 8.57731 19.313C7.72398 22.1742 7.70601 25.2196 8.52553 28.0907C9.34505 30.9618 10.9679 33.5388 13.203 35.5185C15.4381 37.4982 18.1924 38.7979 21.1414 39.2646V28.1608H17.2247V23.5979H21.1414V20.1317C21.0507 19.3257 21.1381 18.5097 21.3973 17.7411C21.6566 16.9726 22.0814 16.2704 22.6417 15.6839C23.2019 15.0975 23.884 14.6412 24.6399 14.3472C25.3959 14.0532 26.2072 13.9287 27.0164 13.9826C28.191 13.9986 29.3629 14.1034 30.5218 14.2959V18.2126H28.5635C28.2259 18.17 27.8828 18.2038 27.56 18.3116C27.2371 18.4193 26.9426 18.5983 26.6982 18.8351C26.4538 19.072 26.2658 19.3608 26.1481 19.6801C26.0302 19.9995 25.9857 20.3412 26.0176 20.68V23.6371H30.3651L29.6601 28.2H26.0372V39.1667C29.7383 38.5813 33.107 36.6888 35.5322 33.8324C37.9574 30.9759 39.2785 27.345 39.256 23.5979Z" fill="white"/>
</svg>
