<svg width="36" height="37" viewBox="0 0 36 37" fill="none" xmlns="http://www.w3.org/2000/svg">
<g clip-path="url(#clip0_329_767)">
<path d="M17.5441 6.51141H23.4653C24.3899 6.52227 25.3054 6.69547 26.17 7.02311C26.7997 7.26933 27.3716 7.64325 27.8497 8.12133C28.3277 8.5994 28.7017 9.17129 28.9479 9.80096C29.2755 10.6656 29.4487 11.5811 29.4596 12.5057C29.5327 14.0408 29.5327 14.5525 29.5327 18.4269C29.5327 22.3013 29.5327 22.813 29.4596 24.3481C29.4487 25.2727 29.2755 26.1882 28.9479 27.0529C28.7017 27.6825 28.3277 28.2544 27.8497 28.7325C27.3716 29.2106 26.7997 29.5845 26.17 29.8307C25.3054 30.1583 24.3899 30.3316 23.4653 30.3424H11.6229C10.6983 30.3316 9.78279 30.1583 8.91813 29.8307C8.28845 29.5845 7.71657 29.2106 7.2385 28.7325C6.76042 28.2544 6.3865 27.6825 6.14028 27.0529C5.81264 26.1882 5.63944 25.2727 5.62857 24.3481C5.55547 22.813 5.55547 22.3013 5.55547 18.4269C5.55547 14.5525 5.55547 14.0408 5.62857 12.5057C5.63944 11.5811 5.81264 10.6656 6.14028 9.80096C6.3865 9.17129 6.76042 8.5994 7.2385 8.12133C7.71657 7.64325 8.28845 7.26933 8.91813 7.02311C9.78279 6.69547 10.6983 6.52227 11.6229 6.51141H17.5441ZM17.5441 3.87976H11.5498C10.331 3.93102 9.1253 4.15247 7.96781 4.53767C6.9925 4.95405 6.11946 5.57765 5.40927 6.3652C4.64421 7.06447 4.06622 7.94402 3.72794 8.92375C3.27866 10.0664 3.03131 11.2784 2.99693 12.5057C2.92383 14.0408 2.92383 14.5525 2.92383 18.5C2.92383 22.4475 2.92383 22.9592 2.99693 24.4943C3.03131 25.7216 3.27866 26.9336 3.72794 28.0763C4.06622 29.056 4.64421 29.9356 5.40927 30.6348C6.10854 31.3999 6.98809 31.9779 7.96781 32.3162C9.11045 32.7654 10.3225 33.0128 11.5498 33.0472H23.5384C24.7657 33.0128 25.9777 32.7654 27.1203 32.3162C28.1001 31.9779 28.9796 31.3999 29.6789 30.6348C30.44 29.9173 31.0383 29.0448 31.4333 28.0763C31.8185 26.9188 32.04 25.7131 32.0912 24.4943C32.1643 22.9592 32.1643 22.4475 32.1643 18.5C32.1643 14.5525 32.1643 14.0408 32.0912 12.5057C32.04 11.2869 31.8185 10.0812 31.4333 8.92375C31.0383 7.9552 30.44 7.08271 29.6789 6.3652C28.9614 5.60408 28.0889 5.0058 27.1203 4.61077C25.9629 4.22557 24.7572 4.00412 23.5384 3.95286H17.5441" fill="white"/>
<path d="M17.5441 10.9706C16.0549 10.9706 14.5992 11.4122 13.361 12.2395C12.1227 13.0669 11.1577 14.2428 10.5878 15.6186C10.0179 16.9944 9.8688 18.5084 10.1593 19.9689C10.4499 21.4295 11.167 22.7711 12.22 23.8241C13.273 24.8771 14.6146 25.5942 16.0752 25.8848C17.5357 26.1753 19.0496 26.0262 20.4255 25.4563C21.8013 24.8864 22.9772 23.9213 23.8046 22.6831C24.6319 21.4449 25.0735 19.9892 25.0735 18.5C25.0735 16.5031 24.2802 14.5879 22.8682 13.1759C21.4562 11.7639 19.541 10.9706 17.5441 10.9706ZM17.5441 23.3978C16.5754 23.3978 15.6285 23.1105 14.823 22.5724C14.0176 22.0342 13.3898 21.2693 13.0191 20.3743C12.6484 19.4794 12.5514 18.4946 12.7404 17.5445C12.9294 16.5944 13.3959 15.7217 14.0808 15.0368C14.7658 14.3518 15.6385 13.8853 16.5886 13.6963C17.5386 13.5074 18.5234 13.6043 19.4184 13.975C20.3133 14.3458 21.0783 14.9735 21.6164 15.7789C22.1546 16.5844 22.4419 17.5313 22.4419 18.5C22.4419 19.799 21.9259 21.0448 21.0073 21.9633C20.0888 22.8818 18.8431 23.3978 17.5441 23.3978Z" fill="white"/>
<path d="M27.1202 10.6782C27.1202 11.0252 27.0173 11.3644 26.8245 11.6529C26.6317 11.9414 26.3577 12.1663 26.0371 12.2991C25.7166 12.4319 25.3638 12.4666 25.0235 12.3989C24.6832 12.3312 24.3706 12.1641 24.1252 11.9188C23.8798 11.6734 23.7127 11.3608 23.645 11.0205C23.5773 10.6801 23.6121 10.3274 23.7449 10.0068C23.8777 9.68623 24.1025 9.41222 24.391 9.21944C24.6796 9.02666 25.0188 8.92377 25.3658 8.92377C25.8311 8.92377 26.2773 9.10861 26.6063 9.43763C26.9353 9.76665 27.1202 10.2129 27.1202 10.6782Z" fill="white"/>
</g>
<defs>
<clipPath id="clip0_329_767">
<rect width="35.0886" height="35.0886" fill="white" transform="translate(0 0.955688)"/>
</clipPath>
</defs>
</svg>
