<svg width="1550" height="414" viewBox="0 0 1550 414" fill="none" xmlns="http://www.w3.org/2000/svg">
<path d="M1.5 207C26.6667 209 91.5 195.3 145.5 138.5C199.5 81.7 213 48.8317 294.5 47.5C345.5 46.6667 449.6 77.4 458 207C466.4 336.6 575.167 372.333 628.5 374C678.167 366.833 781 348 781 207C781 66 890.833 47.5 944 40.5C994 43.5 1094.84 60.5 1106 207C1116.55 345.5 1211 370.833 1257.5 374C1291 374 1361.64 351.07 1412.5 284C1492.5 178.5 1600.17 191.333 1668 193" stroke="#FBF6F0" stroke-width="63"/>
<path d="M1.5 207C26.6667 209 91.5 195.3 145.5 138.5C199.5 81.7 213 48.8317 294.5 47.5C345.5 46.6667 449.6 77.4 458 207C466.4 336.6 575.167 372.333 628.5 374C678.167 366.833 781 348 781 207C781 66 890.833 47.5 944 40.5C994 43.5 1094.84 60.5 1106 207C1116.55 345.5 1211 370.833 1257.5 374C1291 374 1361.64 351.07 1412.5 284C1492.5 178.5 1600.17 191.333 1668 193" stroke="#FF9845" stroke-width="5" stroke-linecap="round" stroke-linejoin="round" stroke-dasharray="45 58"/>
<circle cx="289.5" cy="47.5" r="40.5" fill="#FFC293"/>
<circle cx="629.5" cy="368.5" r="40.5" fill="#FFC293"/>
<circle cx="946.5" cy="40.5" r="40.5" fill="#FFC293"/>
<circle cx="1262.5" cy="373.5" r="40.5" fill="#FFC293"/>
<path d="M282.823 36.4V30.466H293.909V64H287.285V36.4H282.823Z" fill="black"/>
<path d="M620.755 377.732C623.699 375.279 626.045 373.239 627.793 371.614C629.541 369.958 630.998 368.241 632.163 366.462C633.328 364.683 633.911 362.935 633.911 361.218C633.911 359.654 633.543 358.427 632.807 357.538C632.071 356.649 630.936 356.204 629.403 356.204C627.87 356.204 626.689 356.725 625.861 357.768C625.033 358.78 624.604 360.175 624.573 361.954H618.317C618.44 358.274 619.528 355.483 621.583 353.582C623.668 351.681 626.306 350.73 629.495 350.73C632.991 350.73 635.674 351.665 637.545 353.536C639.416 355.376 640.351 357.814 640.351 360.85C640.351 363.242 639.707 365.527 638.419 367.704C637.131 369.881 635.659 371.783 634.003 373.408C632.347 375.003 630.185 376.935 627.517 379.204H641.087V384.54H618.363V379.756L620.755 377.732Z" fill="black"/>
<path d="M935.761 32.298C935.915 29.2313 936.988 26.87 938.981 25.214C941.005 23.5273 943.658 22.684 946.939 22.684C949.178 22.684 951.095 23.0827 952.689 23.88C954.284 24.6467 955.48 25.7047 956.277 27.054C957.105 28.3727 957.519 29.8753 957.519 31.562C957.519 33.494 957.013 35.1347 956.001 36.484C955.02 37.8027 953.839 38.692 952.459 39.152V39.336C954.238 39.888 955.618 40.8693 956.599 42.28C957.611 43.6907 958.117 45.5 958.117 47.708C958.117 49.548 957.688 51.1887 956.829 52.63C956.001 54.0713 954.759 55.206 953.103 56.034C951.478 56.8313 949.515 57.23 947.215 57.23C943.75 57.23 940.929 56.356 938.751 54.608C936.574 52.86 935.424 50.284 935.301 46.88H941.557C941.619 48.3827 942.125 49.594 943.075 50.514C944.057 51.4033 945.391 51.848 947.077 51.848C948.641 51.848 949.837 51.4187 950.665 50.56C951.524 49.6707 951.953 48.536 951.953 47.156C951.953 45.316 951.371 43.9973 950.205 43.2C949.04 42.4027 947.231 42.004 944.777 42.004H943.443V36.714H944.777C949.132 36.714 951.309 35.2573 951.309 32.344C951.309 31.0253 950.911 29.998 950.113 29.262C949.347 28.526 948.227 28.158 946.755 28.158C945.314 28.158 944.195 28.5567 943.397 29.354C942.631 30.1207 942.186 31.102 942.063 32.298H935.761Z" fill="black"/>
<path d="M1250.46 383.468V378.408L1265.5 356.88H1273V377.856H1277.04V383.468H1273V390H1266.56V383.468H1250.46ZM1266.97 363.78L1257.54 377.856H1266.97V363.78Z" fill="black"/>
<path d="M235.122 233.832C235.122 231.656 235.623 229.704 236.626 227.976C237.65 226.248 239.026 224.904 240.754 223.944C242.503 222.963 244.412 222.472 246.482 222.472C248.85 222.472 250.951 223.059 252.786 224.232C254.642 225.384 255.986 227.027 256.818 229.16H252.434C251.858 227.987 251.058 227.112 250.034 226.536C249.01 225.96 247.826 225.672 246.482 225.672C245.01 225.672 243.698 226.003 242.546 226.664C241.394 227.325 240.487 228.275 239.826 229.512C239.186 230.749 238.866 232.189 238.866 233.832C238.866 235.475 239.186 236.915 239.826 238.152C240.487 239.389 241.394 240.349 242.546 241.032C243.698 241.693 245.01 242.024 246.482 242.024C247.826 242.024 249.01 241.736 250.034 241.16C251.058 240.584 251.858 239.709 252.434 238.536H256.818C255.986 240.669 254.642 242.312 252.786 243.464C250.951 244.616 248.85 245.192 246.482 245.192C244.391 245.192 242.482 244.712 240.754 243.752C239.026 242.771 237.65 241.416 236.626 239.688C235.623 237.96 235.122 236.008 235.122 233.832ZM264.736 229.928C265.269 229.032 265.973 228.339 266.848 227.848C267.744 227.336 268.8 227.08 270.016 227.08V230.856H269.088C267.658 230.856 266.57 231.219 265.824 231.944C265.098 232.669 264.736 233.928 264.736 235.72V245H261.088V227.368H264.736V229.928ZM289.529 235.752C289.529 236.413 289.486 237.011 289.401 237.544H275.929C276.035 238.952 276.558 240.083 277.497 240.936C278.435 241.789 279.587 242.216 280.953 242.216C282.915 242.216 284.302 241.395 285.113 239.752H289.049C288.515 241.373 287.545 242.707 286.137 243.752C284.75 244.776 283.022 245.288 280.953 245.288C279.267 245.288 277.753 244.915 276.409 244.168C275.086 243.4 274.041 242.333 273.273 240.968C272.526 239.581 272.153 237.981 272.153 236.168C272.153 234.355 272.515 232.765 273.241 231.4C273.987 230.013 275.022 228.947 276.345 228.2C277.689 227.453 279.225 227.08 280.953 227.08C282.617 227.08 284.099 227.443 285.401 228.168C286.702 228.893 287.715 229.917 288.441 231.24C289.166 232.541 289.529 234.045 289.529 235.752ZM285.721 234.6C285.699 233.256 285.219 232.179 284.281 231.368C283.342 230.557 282.179 230.152 280.793 230.152C279.534 230.152 278.457 230.557 277.561 231.368C276.665 232.157 276.131 233.235 275.961 234.6H285.721ZM291.903 236.104C291.903 234.333 292.265 232.765 292.991 231.4C293.737 230.035 294.74 228.979 295.999 228.232C297.279 227.464 298.687 227.08 300.223 227.08C301.609 227.08 302.815 227.357 303.839 227.912C304.884 228.445 305.716 229.117 306.335 229.928V227.368H310.015V245H306.335V242.376C305.716 243.208 304.873 243.901 303.807 244.456C302.74 245.011 301.524 245.288 300.159 245.288C298.644 245.288 297.257 244.904 295.999 244.136C294.74 243.347 293.737 242.259 292.991 240.872C292.265 239.464 291.903 237.875 291.903 236.104ZM306.335 236.168C306.335 234.952 306.079 233.896 305.567 233C305.076 232.104 304.425 231.421 303.615 230.952C302.804 230.483 301.929 230.248 300.991 230.248C300.052 230.248 299.177 230.483 298.367 230.952C297.556 231.4 296.895 232.072 296.383 232.968C295.892 233.843 295.647 234.888 295.647 236.104C295.647 237.32 295.892 238.387 296.383 239.304C296.895 240.221 297.556 240.925 298.367 241.416C299.199 241.885 300.073 242.12 300.991 242.12C301.929 242.12 302.804 241.885 303.615 241.416C304.425 240.947 305.076 240.264 305.567 239.368C306.079 238.451 306.335 237.384 306.335 236.168ZM319.062 230.344V240.104C319.062 240.765 319.212 241.245 319.51 241.544C319.83 241.821 320.364 241.96 321.11 241.96H323.35V245H320.47C318.828 245 317.569 244.616 316.694 243.848C315.82 243.08 315.382 241.832 315.382 240.104V230.344H313.302V227.368H315.382V222.984H319.062V227.368H323.35V230.344H319.062ZM342.873 235.752C342.873 236.413 342.83 237.011 342.745 237.544H329.273C329.379 238.952 329.902 240.083 330.841 240.936C331.779 241.789 332.931 242.216 334.297 242.216C336.259 242.216 337.646 241.395 338.457 239.752H342.392C341.859 241.373 340.889 242.707 339.481 243.752C338.094 244.776 336.366 245.288 334.297 245.288C332.611 245.288 331.097 244.915 329.753 244.168C328.43 243.4 327.385 242.333 326.617 240.968C325.87 239.581 325.497 237.981 325.497 236.168C325.497 234.355 325.859 232.765 326.585 231.4C327.331 230.013 328.366 228.947 329.689 228.2C331.033 227.453 332.569 227.08 334.297 227.08C335.961 227.08 337.443 227.443 338.745 228.168C340.046 228.893 341.059 229.917 341.785 231.24C342.51 232.541 342.873 234.045 342.873 235.752ZM339.065 234.6C339.043 233.256 338.563 232.179 337.625 231.368C336.686 230.557 335.523 230.152 334.137 230.152C332.878 230.152 331.801 230.557 330.905 231.368C330.009 232.157 329.475 233.235 329.305 234.6H339.065ZM223.215 275.104C223.215 273.333 223.578 271.765 224.303 270.4C225.05 269.035 226.053 267.979 227.311 267.232C228.591 266.464 229.999 266.08 231.535 266.08C232.922 266.08 234.127 266.357 235.151 266.912C236.197 267.445 237.029 268.117 237.647 268.928V266.368H241.327V284H237.647V281.376C237.029 282.208 236.186 282.901 235.119 283.456C234.053 284.011 232.837 284.288 231.471 284.288C229.957 284.288 228.57 283.904 227.311 283.136C226.053 282.347 225.05 281.259 224.303 279.872C223.578 278.464 223.215 276.875 223.215 275.104ZM237.647 275.168C237.647 273.952 237.391 272.896 236.879 272C236.389 271.104 235.738 270.421 234.927 269.952C234.117 269.483 233.242 269.248 232.303 269.248C231.365 269.248 230.49 269.483 229.679 269.952C228.869 270.4 228.207 271.072 227.695 271.968C227.205 272.843 226.959 273.888 226.959 275.104C226.959 276.32 227.205 277.387 227.695 278.304C228.207 279.221 228.869 279.925 229.679 280.416C230.511 280.885 231.386 281.12 232.303 281.12C233.242 281.12 234.117 280.885 234.927 280.416C235.738 279.947 236.389 279.264 236.879 278.368C237.391 277.451 237.647 276.384 237.647 275.168ZM244.903 275.168C244.903 273.355 245.265 271.765 245.991 270.4C246.737 269.013 247.761 267.947 249.063 267.2C250.364 266.453 251.857 266.08 253.543 266.08C255.676 266.08 257.436 266.592 258.823 267.616C260.231 268.619 261.18 270.059 261.671 271.936H257.735C257.415 271.061 256.903 270.379 256.199 269.888C255.495 269.397 254.609 269.152 253.543 269.152C252.049 269.152 250.855 269.685 249.959 270.752C249.084 271.797 248.647 273.269 248.647 275.168C248.647 277.067 249.084 278.549 249.959 279.616C250.855 280.683 252.049 281.216 253.543 281.216C255.655 281.216 257.052 280.288 257.735 278.432H261.671C261.159 280.224 260.199 281.653 258.791 282.72C257.383 283.765 255.633 284.288 253.543 284.288C251.857 284.288 250.364 283.915 249.063 283.168C247.761 282.4 246.737 281.333 245.991 279.968C245.265 278.581 244.903 276.981 244.903 275.168ZM264.09 275.168C264.09 273.355 264.453 271.765 265.178 270.4C265.925 269.013 266.949 267.947 268.25 267.2C269.552 266.453 271.045 266.08 272.73 266.08C274.864 266.08 276.624 266.592 278.01 267.616C279.418 268.619 280.368 270.059 280.858 271.936H276.922C276.602 271.061 276.09 270.379 275.386 269.888C274.682 269.397 273.797 269.152 272.73 269.152C271.237 269.152 270.042 269.685 269.146 270.752C268.272 271.797 267.834 273.269 267.834 275.168C267.834 277.067 268.272 278.549 269.146 279.616C270.042 280.683 271.237 281.216 272.73 281.216C274.842 281.216 276.24 280.288 276.922 278.432H280.858C280.346 280.224 279.386 281.653 277.978 282.72C276.57 283.765 274.821 284.288 272.73 284.288C271.045 284.288 269.552 283.915 268.25 283.168C266.949 282.4 265.925 281.333 265.178 279.968C264.453 278.581 264.09 276.981 264.09 275.168ZM292.142 284.288C290.478 284.288 288.974 283.915 287.63 283.168C286.286 282.4 285.23 281.333 284.462 279.968C283.694 278.581 283.31 276.981 283.31 275.168C283.31 273.376 283.704 271.787 284.494 270.4C285.283 269.013 286.36 267.947 287.726 267.2C289.091 266.453 290.616 266.08 292.302 266.08C293.987 266.08 295.512 266.453 296.878 267.2C298.243 267.947 299.32 269.013 300.11 270.4C300.899 271.787 301.294 273.376 301.294 275.168C301.294 276.96 300.888 278.549 300.078 279.936C299.267 281.323 298.158 282.4 296.75 283.168C295.363 283.915 293.827 284.288 292.142 284.288ZM292.142 281.12C293.08 281.12 293.955 280.896 294.766 280.448C295.598 280 296.27 279.328 296.782 278.432C297.294 277.536 297.55 276.448 297.55 275.168C297.55 273.888 297.304 272.811 296.814 271.936C296.323 271.04 295.672 270.368 294.862 269.92C294.051 269.472 293.176 269.248 292.238 269.248C291.299 269.248 290.424 269.472 289.614 269.92C288.824 270.368 288.195 271.04 287.726 271.936C287.256 272.811 287.022 273.888 287.022 275.168C287.022 277.067 287.502 278.539 288.462 279.584C289.443 280.608 290.67 281.12 292.142 281.12ZM320.868 266.368V284H317.22V281.92C316.644 282.645 315.887 283.221 314.948 283.648C314.031 284.053 313.049 284.256 312.004 284.256C310.617 284.256 309.369 283.968 308.26 283.392C307.172 282.816 306.308 281.963 305.668 280.832C305.049 279.701 304.74 278.336 304.74 276.736V266.368H308.356V276.192C308.356 277.771 308.751 278.987 309.54 279.84C310.329 280.672 311.407 281.088 312.772 281.088C314.137 281.088 315.215 280.672 316.004 279.84C316.815 278.987 317.22 277.771 317.22 276.192V266.368H320.868ZM334.577 266.08C335.964 266.08 337.201 266.368 338.289 266.944C339.399 267.52 340.263 268.373 340.881 269.504C341.5 270.635 341.809 272 341.809 273.6V284H338.193V274.144C338.193 272.565 337.799 271.36 337.009 270.528C336.22 269.675 335.143 269.248 333.777 269.248C332.412 269.248 331.324 269.675 330.513 270.528C329.724 271.36 329.329 272.565 329.329 274.144V284H325.681V266.368H329.329V268.384C329.927 267.659 330.684 267.093 331.601 266.688C332.54 266.283 333.532 266.08 334.577 266.08ZM350.719 269.344V279.104C350.719 279.765 350.868 280.245 351.167 280.544C351.487 280.821 352.02 280.96 352.767 280.96H355.007V284H352.127C350.484 284 349.225 283.616 348.351 282.848C347.476 282.08 347.039 280.832 347.039 279.104V269.344H344.959V266.368H347.039V261.984H350.719V266.368H355.007V269.344H350.719Z" fill="black"/>
<path d="M558.566 215.76V218.736H549.126V225.296H556.486V228.272H549.126V238H545.478V215.76H558.566ZM563.803 218.032C563.142 218.032 562.587 217.808 562.139 217.36C561.691 216.912 561.467 216.357 561.467 215.696C561.467 215.035 561.691 214.48 562.139 214.032C562.587 213.584 563.142 213.36 563.803 213.36C564.443 213.36 564.987 213.584 565.435 214.032C565.883 214.48 566.107 215.035 566.107 215.696C566.107 216.357 565.883 216.912 565.435 217.36C564.987 217.808 564.443 218.032 563.803 218.032ZM565.595 220.368V238H561.947V220.368H565.595ZM579.28 220.08C580.667 220.08 581.904 220.368 582.992 220.944C584.102 221.52 584.966 222.373 585.584 223.504C586.203 224.635 586.512 226 586.512 227.6V238H582.896V228.144C582.896 226.565 582.502 225.36 581.712 224.528C580.923 223.675 579.846 223.248 578.48 223.248C577.115 223.248 576.027 223.675 575.216 224.528C574.427 225.36 574.032 226.565 574.032 228.144V238H570.384V220.368H574.032V222.384C574.63 221.659 575.387 221.093 576.304 220.688C577.243 220.283 578.235 220.08 579.28 220.08ZM589.95 229.104C589.95 227.333 590.312 225.765 591.038 224.4C591.784 223.035 592.787 221.979 594.046 221.232C595.326 220.464 596.744 220.08 598.302 220.08C599.454 220.08 600.584 220.336 601.694 220.848C602.824 221.339 603.72 222 604.382 222.832V214.32H608.062V238H604.382V235.344C603.784 236.197 602.952 236.901 601.886 237.456C600.84 238.011 599.635 238.288 598.27 238.288C596.734 238.288 595.326 237.904 594.046 237.136C592.787 236.347 591.784 235.259 591.038 233.872C590.312 232.464 589.95 230.875 589.95 229.104ZM604.382 229.168C604.382 227.952 604.126 226.896 603.614 226C603.123 225.104 602.472 224.421 601.662 223.952C600.851 223.483 599.976 223.248 599.038 223.248C598.099 223.248 597.224 223.483 596.414 223.952C595.603 224.4 594.942 225.072 594.43 225.968C593.939 226.843 593.694 227.888 593.694 229.104C593.694 230.32 593.939 231.387 594.43 232.304C594.942 233.221 595.603 233.925 596.414 234.416C597.246 234.885 598.12 235.12 599.038 235.12C599.976 235.12 600.851 234.885 601.662 234.416C602.472 233.947 603.123 233.264 603.614 232.368C604.126 231.451 604.382 230.384 604.382 229.168ZM634.574 233.456H625.262L623.662 238H619.854L627.822 215.728H632.046L640.014 238H636.174L634.574 233.456ZM633.55 230.48L629.934 220.144L626.286 230.48H633.55ZM653.647 218.032C652.985 218.032 652.431 217.808 651.983 217.36C651.535 216.912 651.311 216.357 651.311 215.696C651.311 215.035 651.535 214.48 651.983 214.032C652.431 213.584 652.985 213.36 653.647 213.36C654.287 213.36 654.831 213.584 655.279 214.032C655.727 214.48 655.951 215.035 655.951 215.696C655.951 216.357 655.727 216.912 655.279 217.36C654.831 217.808 654.287 218.032 653.647 218.032ZM655.439 241.456C655.439 243.184 655.001 244.432 654.127 245.2C653.273 245.989 652.025 246.384 650.383 246.384H648.495V243.312H649.743C650.489 243.312 651.012 243.163 651.311 242.864C651.631 242.587 651.791 242.117 651.791 241.456V220.368H655.439V241.456ZM667.876 238.288C666.212 238.288 664.708 237.915 663.364 237.168C662.02 236.4 660.964 235.333 660.196 233.968C659.428 232.581 659.044 230.981 659.044 229.168C659.044 227.376 659.439 225.787 660.228 224.4C661.017 223.013 662.095 221.947 663.46 221.2C664.825 220.453 666.351 220.08 668.036 220.08C669.721 220.08 671.247 220.453 672.612 221.2C673.977 221.947 675.055 223.013 675.844 224.4C676.633 225.787 677.028 227.376 677.028 229.168C677.028 230.96 676.623 232.549 675.812 233.936C675.001 235.323 673.892 236.4 672.484 237.168C671.097 237.915 669.561 238.288 667.876 238.288ZM667.876 235.12C668.815 235.12 669.689 234.896 670.5 234.448C671.332 234 672.004 233.328 672.516 232.432C673.028 231.536 673.284 230.448 673.284 229.168C673.284 227.888 673.039 226.811 672.548 225.936C672.057 225.04 671.407 224.368 670.596 223.92C669.785 223.472 668.911 223.248 667.972 223.248C667.033 223.248 666.159 223.472 665.348 223.92C664.559 224.368 663.929 225.04 663.46 225.936C662.991 226.811 662.756 227.888 662.756 229.168C662.756 231.067 663.236 232.539 664.196 233.584C665.177 234.608 666.404 235.12 667.876 235.12ZM684.282 222.992C684.901 222.139 685.744 221.445 686.81 220.912C687.898 220.357 689.104 220.08 690.426 220.08C691.984 220.08 693.392 220.453 694.65 221.2C695.909 221.947 696.901 223.013 697.626 224.4C698.352 225.765 698.714 227.333 698.714 229.104C698.714 230.875 698.352 232.464 697.626 233.872C696.901 235.259 695.898 236.347 694.618 237.136C693.36 237.904 691.962 238.288 690.426 238.288C689.061 238.288 687.845 238.021 686.778 237.488C685.733 236.955 684.901 236.272 684.282 235.44V238H680.634V214.32H684.282V222.992ZM695.002 229.104C695.002 227.888 694.746 226.843 694.234 225.968C693.744 225.072 693.082 224.4 692.25 223.952C691.44 223.483 690.565 223.248 689.626 223.248C688.709 223.248 687.834 223.483 687.002 223.952C686.192 224.421 685.53 225.104 685.018 226C684.528 226.896 684.282 227.952 684.282 229.168C684.282 230.384 684.528 231.451 685.018 232.368C685.53 233.264 686.192 233.947 687.002 234.416C687.834 234.885 688.709 235.12 689.626 235.12C690.565 235.12 691.44 234.885 692.25 234.416C693.082 233.925 693.744 233.221 694.234 232.304C694.746 231.387 695.002 230.32 695.002 229.104Z" fill="black"/>
<path d="M876.199 233.456H866.887L865.287 238H861.479L869.447 215.728H873.671L881.639 238H877.799L876.199 233.456ZM875.175 230.48L871.559 220.144L867.911 230.48H875.175ZM888.751 222.96C889.37 222.149 890.212 221.467 891.279 220.912C892.346 220.357 893.551 220.08 894.895 220.08C896.431 220.08 897.828 220.464 899.087 221.232C900.367 221.979 901.37 223.035 902.095 224.4C902.82 225.765 903.183 227.333 903.183 229.104C903.183 230.875 902.82 232.464 902.095 233.872C901.37 235.259 900.367 236.347 899.087 237.136C897.828 237.904 896.431 238.288 894.895 238.288C893.551 238.288 892.356 238.021 891.311 237.488C890.266 236.933 889.412 236.251 888.751 235.44V246.384H885.103V220.368H888.751V222.96ZM899.471 229.104C899.471 227.888 899.215 226.843 898.703 225.968C898.212 225.072 897.551 224.4 896.719 223.952C895.908 223.483 895.034 223.248 894.095 223.248C893.178 223.248 892.303 223.483 891.471 223.952C890.66 224.421 889.999 225.104 889.487 226C888.996 226.896 888.751 227.952 888.751 229.168C888.751 230.384 888.996 231.451 889.487 232.368C889.999 233.264 890.66 233.947 891.471 234.416C892.303 234.885 893.178 235.12 894.095 235.12C895.034 235.12 895.908 234.885 896.719 234.416C897.551 233.925 898.212 233.221 898.703 232.304C899.215 231.387 899.471 230.32 899.471 229.104ZM910.439 222.96C911.057 222.149 911.9 221.467 912.967 220.912C914.033 220.357 915.239 220.08 916.583 220.08C918.119 220.08 919.516 220.464 920.775 221.232C922.055 221.979 923.057 223.035 923.783 224.4C924.508 225.765 924.871 227.333 924.871 229.104C924.871 230.875 924.508 232.464 923.783 233.872C923.057 235.259 922.055 236.347 920.775 237.136C919.516 237.904 918.119 238.288 916.583 238.288C915.239 238.288 914.044 238.021 912.999 237.488C911.953 236.933 911.1 236.251 910.439 235.44V246.384H906.791V220.368H910.439V222.96ZM921.159 229.104C921.159 227.888 920.903 226.843 920.391 225.968C919.9 225.072 919.239 224.4 918.407 223.952C917.596 223.483 916.721 223.248 915.783 223.248C914.865 223.248 913.991 223.483 913.159 223.952C912.348 224.421 911.687 225.104 911.175 226C910.684 226.896 910.439 227.952 910.439 229.168C910.439 230.384 910.684 231.451 911.175 232.368C911.687 233.264 912.348 233.947 913.159 234.416C913.991 234.885 914.865 235.12 915.783 235.12C916.721 235.12 917.596 234.885 918.407 234.416C919.239 233.925 919.9 233.221 920.391 232.304C920.903 231.387 921.159 230.32 921.159 229.104ZM932.126 214.32V238H928.478V214.32H932.126ZM952.788 220.368L941.972 246.288H938.196L941.78 237.712L934.836 220.368H938.9L943.86 233.808L949.012 220.368H952.788ZM975.981 215.76V231.792C975.981 233.776 975.373 235.344 974.157 236.496C972.962 237.648 971.384 238.224 969.421 238.224C967.458 238.224 965.869 237.648 964.653 236.496C963.458 235.344 962.861 233.776 962.861 231.792H966.541C966.562 232.773 966.808 233.552 967.277 234.128C967.768 234.704 968.482 234.992 969.421 234.992C970.36 234.992 971.074 234.704 971.565 234.128C972.056 233.531 972.301 232.752 972.301 231.792V215.76H975.981ZM989.564 238.288C987.9 238.288 986.396 237.915 985.052 237.168C983.708 236.4 982.652 235.333 981.884 233.968C981.116 232.581 980.732 230.981 980.732 229.168C980.732 227.376 981.126 225.787 981.916 224.4C982.705 223.013 983.782 221.947 985.148 221.2C986.513 220.453 988.038 220.08 989.724 220.08C991.409 220.08 992.934 220.453 994.3 221.2C995.665 221.947 996.742 223.013 997.532 224.4C998.321 225.787 998.716 227.376 998.716 229.168C998.716 230.96 998.31 232.549 997.5 233.936C996.689 235.323 995.58 236.4 994.172 237.168C992.785 237.915 991.249 238.288 989.564 238.288ZM989.564 235.12C990.502 235.12 991.377 234.896 992.188 234.448C993.02 234 993.692 233.328 994.204 232.432C994.716 231.536 994.972 230.448 994.972 229.168C994.972 227.888 994.726 226.811 994.236 225.936C993.745 225.04 993.094 224.368 992.284 223.92C991.473 223.472 990.598 223.248 989.66 223.248C988.721 223.248 987.846 223.472 987.036 223.92C986.246 224.368 985.617 225.04 985.148 225.936C984.678 226.811 984.444 227.888 984.444 229.168C984.444 231.067 984.924 232.539 985.884 233.584C986.865 234.608 988.092 235.12 989.564 235.12ZM1005.97 222.992C1006.59 222.139 1007.43 221.445 1008.5 220.912C1009.59 220.357 1010.79 220.08 1012.11 220.08C1013.67 220.08 1015.08 220.453 1016.34 221.2C1017.6 221.947 1018.59 223.013 1019.31 224.4C1020.04 225.765 1020.4 227.333 1020.4 229.104C1020.4 230.875 1020.04 232.464 1019.31 233.872C1018.59 235.259 1017.59 236.347 1016.31 237.136C1015.05 237.904 1013.65 238.288 1012.11 238.288C1010.75 238.288 1009.53 238.021 1008.47 237.488C1007.42 236.955 1006.59 236.272 1005.97 235.44V238H1002.32V214.32H1005.97V222.992ZM1016.69 229.104C1016.69 227.888 1016.43 226.843 1015.92 225.968C1015.43 225.072 1014.77 224.4 1013.94 223.952C1013.13 223.483 1012.25 223.248 1011.31 223.248C1010.4 223.248 1009.52 223.483 1008.69 223.952C1007.88 224.421 1007.22 225.104 1006.71 226C1006.22 226.896 1005.97 227.952 1005.97 229.168C1005.97 230.384 1006.22 231.451 1006.71 232.368C1007.22 233.264 1007.88 233.947 1008.69 234.416C1009.52 234.885 1010.4 235.12 1011.31 235.12C1012.25 235.12 1013.13 234.885 1013.94 234.416C1014.77 233.925 1015.43 233.221 1015.92 232.304C1016.43 231.387 1016.69 230.32 1016.69 229.104Z" fill="black"/>
<path d="M1285.5 158.833H1276.4V156.222C1276.4 153.34 1274.07 151.004 1271.2 151H1260.8C1257.93 151.004 1255.6 153.34 1255.6 156.222V158.833H1246.5C1242.91 158.837 1240 161.757 1240 165.361V191.472C1240 195.076 1242.91 197.997 1246.5 198H1285.5C1289.09 197.997 1292 195.076 1292 191.472V165.361C1292 161.757 1289.09 158.837 1285.5 158.833ZM1258.2 156.222C1258.2 154.781 1259.36 153.612 1260.8 153.611H1271.2C1272.64 153.612 1273.8 154.781 1273.8 156.222V158.833H1258.2V156.222ZM1289.4 191.472C1289.4 193.634 1287.65 195.386 1285.5 195.389H1246.5C1244.35 195.386 1242.6 193.634 1242.6 191.472V174.571L1257.79 179.656C1257.92 179.7 1258.06 179.722 1258.2 179.722H1273.8C1273.94 179.722 1274.08 179.7 1274.21 179.656L1289.4 174.571V191.472ZM1289.4 171.904C1289.26 171.904 1289.13 171.909 1288.99 171.955L1273.59 177.111H1258.41L1243.01 171.955C1242.87 171.909 1242.74 171.904 1242.6 171.904V165.361C1242.6 163.199 1244.35 161.447 1246.5 161.444H1285.5C1287.65 161.447 1289.4 163.199 1289.4 165.361V171.904Z" fill="black"/>
<path d="M959.652 198H920.347C919.656 198 919.096 197.44 919.096 196.749V151.345C919.096 150.654 919.656 150.094 920.347 150.094H928.31C929.001 150.094 929.561 150.654 929.561 151.345C929.561 152.036 929.001 152.596 928.31 152.596H921.599V195.489H958.392V152.605H951.97C951.279 152.605 950.719 152.045 950.719 151.354C950.719 150.662 951.279 150.103 951.97 150.103H959.652C960.344 150.103 960.904 150.662 960.904 151.354V196.749C960.904 197.44 960.344 198 959.652 198Z" fill="black"/>
<path d="M951.83 158.284H928.17C927.479 158.284 926.919 157.724 926.919 157.033V149.35C926.919 148.659 927.479 148.099 928.17 148.099H951.83C952.521 148.099 953.081 148.659 953.081 149.35V157.033C953.081 157.724 952.521 158.284 951.83 158.284ZM929.421 155.781H950.57V150.601H929.421V155.781Z" fill="black"/>
<path d="M945.801 150.304C945.11 150.304 944.55 149.744 944.55 149.053C944.55 146.55 942.511 144.511 940.009 144.511C937.506 144.511 935.467 146.55 935.467 149.053C935.467 149.744 934.907 150.304 934.216 150.304C933.525 150.304 932.965 149.744 932.965 149.053C932.947 145.159 936.115 142 940 142C943.885 142 947.052 145.159 947.052 149.053C947.052 149.744 946.492 150.304 945.801 150.304Z" fill="black"/>
<path d="M934.925 187.868C934.601 187.868 934.286 187.745 934.041 187.5L924.959 178.418C924.469 177.928 924.469 177.131 924.959 176.641C925.449 176.151 926.245 176.151 926.735 176.641L934.951 184.858L953.291 167.533C953.799 167.06 954.586 167.078 955.068 167.585C955.54 168.093 955.523 168.88 955.015 169.361L935.791 187.526C935.546 187.754 935.24 187.868 934.925 187.868Z" fill="black"/>
<path d="M1195.84 238.224C1194.34 238.224 1193 237.968 1191.81 237.456C1190.61 236.923 1189.67 236.176 1188.99 235.216C1188.31 234.256 1187.97 233.136 1187.97 231.856H1191.87C1191.95 232.816 1192.33 233.605 1192.99 234.224C1193.67 234.843 1194.62 235.152 1195.84 235.152C1197.1 235.152 1198.08 234.853 1198.78 234.256C1199.49 233.637 1199.84 232.848 1199.84 231.888C1199.84 231.141 1199.61 230.533 1199.17 230.064C1198.74 229.595 1198.19 229.232 1197.53 228.976C1196.89 228.72 1196 228.443 1194.85 228.144C1193.39 227.76 1192.21 227.376 1191.29 226.992C1190.4 226.587 1189.63 225.968 1188.99 225.136C1188.35 224.304 1188.03 223.195 1188.03 221.808C1188.03 220.528 1188.35 219.408 1188.99 218.448C1189.63 217.488 1190.53 216.752 1191.68 216.24C1192.83 215.728 1194.16 215.472 1195.68 215.472C1197.83 215.472 1199.59 216.016 1200.96 217.104C1202.34 218.171 1203.11 219.643 1203.26 221.52H1199.23C1199.17 220.709 1198.78 220.016 1198.08 219.44C1197.37 218.864 1196.45 218.576 1195.29 218.576C1194.25 218.576 1193.39 218.843 1192.73 219.376C1192.07 219.909 1191.74 220.677 1191.74 221.68C1191.74 222.363 1191.94 222.928 1192.35 223.376C1192.78 223.803 1193.31 224.144 1193.95 224.4C1194.59 224.656 1195.46 224.933 1196.57 225.232C1198.05 225.637 1199.24 226.043 1200.16 226.448C1201.1 226.853 1201.89 227.483 1202.53 228.336C1203.19 229.168 1203.52 230.288 1203.52 231.696C1203.52 232.827 1203.21 233.893 1202.59 234.896C1201.99 235.899 1201.11 236.709 1199.93 237.328C1198.78 237.925 1197.42 238.224 1195.84 238.224ZM1212.08 223.344V233.104C1212.08 233.765 1212.23 234.245 1212.53 234.544C1212.85 234.821 1213.38 234.96 1214.13 234.96H1216.37V238H1213.49C1211.84 238 1210.58 237.616 1209.71 236.848C1208.84 236.08 1208.4 234.832 1208.4 233.104V223.344H1206.32V220.368H1208.4V215.984H1212.08V220.368H1216.37V223.344H1212.08ZM1218.51 229.104C1218.51 227.333 1218.87 225.765 1219.6 224.4C1220.35 223.035 1221.35 221.979 1222.61 221.232C1223.89 220.464 1225.3 220.08 1226.83 220.08C1228.22 220.08 1229.42 220.357 1230.45 220.912C1231.49 221.445 1232.33 222.117 1232.94 222.928V220.368H1236.62V238H1232.94V235.376C1232.33 236.208 1231.48 236.901 1230.42 237.456C1229.35 238.011 1228.13 238.288 1226.77 238.288C1225.25 238.288 1223.87 237.904 1222.61 237.136C1221.35 236.347 1220.35 235.259 1219.6 233.872C1218.87 232.464 1218.51 230.875 1218.51 229.104ZM1232.94 229.168C1232.94 227.952 1232.69 226.896 1232.18 226C1231.69 225.104 1231.03 224.421 1230.22 223.952C1229.41 223.483 1228.54 223.248 1227.6 223.248C1226.66 223.248 1225.79 223.483 1224.98 223.952C1224.17 224.4 1223.5 225.072 1222.99 225.968C1222.5 226.843 1222.26 227.888 1222.26 229.104C1222.26 230.32 1222.5 231.387 1222.99 232.304C1223.5 233.221 1224.17 233.925 1224.98 234.416C1225.81 234.885 1226.68 235.12 1227.6 235.12C1228.54 235.12 1229.41 234.885 1230.22 234.416C1231.03 233.947 1231.69 233.264 1232.18 232.368C1232.69 231.451 1232.94 230.384 1232.94 229.168ZM1245.06 222.928C1245.6 222.032 1246.3 221.339 1247.18 220.848C1248.07 220.336 1249.13 220.08 1250.34 220.08V223.856H1249.42C1247.99 223.856 1246.9 224.219 1246.15 224.944C1245.43 225.669 1245.06 226.928 1245.06 228.72V238H1241.42V220.368H1245.06V222.928ZM1257.95 223.344V233.104C1257.95 233.765 1258.1 234.245 1258.4 234.544C1258.72 234.821 1259.25 234.96 1260 234.96H1262.24V238H1259.36C1257.72 238 1256.46 237.616 1255.58 236.848C1254.71 236.08 1254.27 234.832 1254.27 233.104V223.344H1252.19V220.368H1254.27V215.984H1257.95V220.368H1262.24V223.344H1257.95ZM1302.88 215.76L1296.28 238H1292.16L1287.48 221.168L1282.52 238L1278.43 238.032L1272.12 215.76H1276L1280.6 233.872L1285.6 215.76H1289.69L1294.33 233.776L1298.97 215.76H1302.88ZM1313.53 238.288C1311.87 238.288 1310.36 237.915 1309.02 237.168C1307.68 236.4 1306.62 235.333 1305.85 233.968C1305.08 232.581 1304.7 230.981 1304.7 229.168C1304.7 227.376 1305.1 225.787 1305.88 224.4C1306.67 223.013 1307.75 221.947 1309.12 221.2C1310.48 220.453 1312.01 220.08 1313.69 220.08C1315.38 220.08 1316.9 220.453 1318.27 221.2C1319.63 221.947 1320.71 223.013 1321.5 224.4C1322.29 225.787 1322.68 227.376 1322.68 229.168C1322.68 230.96 1322.28 232.549 1321.47 233.936C1320.66 235.323 1319.55 236.4 1318.14 237.168C1316.75 237.915 1315.22 238.288 1313.53 238.288ZM1313.53 235.12C1314.47 235.12 1315.35 234.896 1316.16 234.448C1316.99 234 1317.66 233.328 1318.17 232.432C1318.68 231.536 1318.94 230.448 1318.94 229.168C1318.94 227.888 1318.7 226.811 1318.2 225.936C1317.71 225.04 1317.06 224.368 1316.25 223.92C1315.44 223.472 1314.57 223.248 1313.63 223.248C1312.69 223.248 1311.82 223.472 1311 223.92C1310.22 224.368 1309.59 225.04 1309.12 225.936C1308.65 226.811 1308.41 227.888 1308.41 229.168C1308.41 231.067 1308.89 232.539 1309.85 233.584C1310.83 234.608 1312.06 235.12 1313.53 235.12ZM1329.94 222.928C1330.47 222.032 1331.18 221.339 1332.05 220.848C1332.95 220.336 1334 220.08 1335.22 220.08V223.856H1334.29C1332.86 223.856 1331.77 224.219 1331.03 224.944C1330.3 225.669 1329.94 226.928 1329.94 228.72V238H1326.29V220.368H1329.94V222.928ZM1345.55 229.2L1353.68 238H1348.75L1342.22 230.416V238H1338.57V214.32H1342.22V228.08L1348.62 220.368H1353.68L1345.55 229.2Z" fill="black"/>
<g clip-path="url(#clip0_240_294)">
<g clip-path="url(#clip1_240_294)">
<path fill-rule="evenodd" clip-rule="evenodd" d="M291.833 164.764C290.476 164.764 289.132 165.031 287.879 165.551C286.625 166.07 285.486 166.831 284.526 167.791C283.567 168.75 282.806 169.889 282.286 171.143C281.767 172.397 281.5 173.74 281.5 175.097C281.5 176.454 281.767 177.798 282.286 179.052C282.806 180.305 283.567 181.445 284.526 182.404C285.486 183.364 286.625 184.125 287.879 184.644C289.132 185.163 290.476 185.431 291.833 185.431C294.574 185.431 297.202 184.342 299.14 182.404C301.078 180.466 302.167 177.838 302.167 175.097C302.167 172.357 301.078 169.728 299.14 167.791C297.202 165.853 294.574 164.764 291.833 164.764ZM278.917 175.097C278.917 171.672 280.277 168.386 282.7 165.964C285.122 163.542 288.407 162.181 291.833 162.181C295.259 162.181 298.544 163.542 300.967 165.964C303.389 168.386 304.75 171.672 304.75 175.097C304.75 178.523 303.389 181.808 300.967 184.231C298.544 186.653 295.259 188.014 291.833 188.014C288.407 188.014 285.122 186.653 282.7 184.231C280.277 181.808 278.917 178.523 278.917 175.097Z" fill="black"/>
<path fill-rule="evenodd" clip-rule="evenodd" d="M272.5 206.097H276.333C276.676 206.097 277.004 206.233 277.247 206.476C277.489 206.718 277.625 207.046 277.625 207.389C277.625 207.732 277.489 208.06 277.247 208.302C277.004 208.545 276.676 208.681 276.333 208.681H271.167C270.824 208.681 270.496 208.545 270.253 208.302C270.011 208.06 269.875 207.732 269.875 207.389C269.875 201.565 272.188 195.98 276.306 191.862C280.424 187.744 286.01 185.431 291.833 185.431C297.657 185.431 303.242 187.744 307.36 191.862C311.478 195.98 313.792 201.565 313.792 207.389C313.792 207.732 313.656 208.06 313.413 208.302C313.171 208.545 312.843 208.681 312.5 208.681H284.083C283.741 208.681 283.412 208.545 283.17 208.302C282.928 208.06 282.792 207.732 282.792 207.389C282.792 207.046 282.928 206.718 283.17 206.476C283.412 206.233 283.741 206.097 284.083 206.097H311.167C310.846 201.188 308.669 196.585 305.079 193.222C301.488 189.859 296.753 187.987 291.833 187.987C286.914 187.987 282.178 189.859 278.588 193.222C274.997 196.585 272.821 201.188 272.5 206.097ZM307.778 166.056C307.778 166.398 307.914 166.727 308.156 166.969C308.398 167.211 308.727 167.347 309.069 167.347H323.681C324.023 167.347 324.352 167.211 324.594 166.969C324.836 166.727 324.972 166.398 324.972 166.056C324.972 165.713 324.836 165.385 324.594 165.142C324.352 164.9 324.023 164.764 323.681 164.764H309.069C308.727 164.764 308.398 164.9 308.156 165.142C307.914 165.385 307.778 165.713 307.778 166.056Z" fill="black"/>
<path fill-rule="evenodd" clip-rule="evenodd" d="M316.375 174.656C316.033 174.656 315.704 174.52 315.462 174.277C315.22 174.035 315.083 173.707 315.083 173.364V158.75C315.083 158.407 315.22 158.079 315.462 157.837C315.704 157.594 316.033 157.458 316.375 157.458C316.718 157.458 317.046 157.594 317.289 157.837C317.531 158.079 317.667 158.407 317.667 158.75V173.364C317.667 173.707 317.531 174.035 317.289 174.277C317.046 174.52 316.718 174.656 316.375 174.656Z" fill="black"/>
</g>
</g>
<g clip-path="url(#clip2_240_294)">
<path d="M618 171.308C623.171 171.308 627.333 175.455 627.333 180.593C627.333 185.737 623.171 189.872 618 189.872C612.829 189.872 608.667 185.737 608.667 180.593C608.667 175.455 612.829 171.308 618 171.308ZM592.333 160.729C593.822 162.241 595.888 163.183 598.167 163.183H599.48C600.002 165.178 601.836 166.665 604 166.665C606.158 166.665 607.992 165.178 608.514 163.183H627.486C628.008 165.178 629.844 166.665 632.006 166.665C634.164 166.665 635.993 165.178 636.514 163.183H637.833C640.112 163.183 642.178 162.247 643.667 160.735V171.308C643.667 175.811 640.027 179.433 635.5 179.433H629.612C629.023 173.581 624.034 168.987 618 168.987C611.966 168.987 606.984 173.581 606.388 179.433H600.5C595.973 179.433 592.333 175.811 592.333 171.308V160.729ZM632.006 159.701C633.307 159.701 634.327 160.723 634.327 162.023C634.327 163.316 633.307 164.344 632.006 164.344C630.7 164.344 629.673 163.316 629.673 162.023C629.673 160.723 630.7 159.701 632.006 159.701ZM604 159.701C605.3 159.701 606.333 160.723 606.333 162.023C606.333 163.316 605.3 164.344 604 164.344C602.693 164.344 601.66 163.316 601.66 162.023C601.66 160.723 602.693 159.701 604 159.701ZM600.5 142.291H635.5C640.027 142.291 643.667 145.913 643.667 150.41V155.053C643.667 158.275 641.066 160.862 637.833 160.862H636.514C635.998 158.867 634.168 157.38 632.006 157.38C629.844 157.38 628.008 158.867 627.486 160.862H608.514C607.998 158.867 606.164 157.38 604 157.38C601.836 157.38 599.996 158.867 599.48 160.862H598.167C594.934 160.862 592.333 158.275 592.333 155.053V150.41C592.333 145.913 595.973 142.291 600.5 142.291ZM613.333 135.321H622.667C623.329 135.321 623.833 135.835 623.833 136.488V139.97H612.173V136.488C612.173 135.835 612.677 135.321 613.333 135.321ZM613.333 133C611.414 133 609.833 134.578 609.833 136.488V139.97H600.5C594.715 139.97 590 144.655 590 150.41V171.308C590 177.063 594.715 181.754 600.5 181.754H606.388C606.977 187.611 611.966 192.2 618 192.2C620.795 192.2 623.365 191.214 625.383 189.577L633.514 197.666C633.969 198.113 634.705 198.113 635.155 197.666C635.617 197.212 635.617 196.474 635.155 196.021L627.03 187.932C628.446 186.215 629.382 184.088 629.612 181.754H635.5C641.285 181.754 646 177.063 646 171.308V150.41C646 144.655 641.285 139.97 635.5 139.97H626.167V136.488C626.167 134.578 624.586 133 622.667 133H613.333Z" fill="black"/>
</g>
<defs>
<clipPath id="clip0_240_294">
<rect width="89" height="89" fill="white" transform="translate(252 151)"/>
</clipPath>
<clipPath id="clip1_240_294">
<rect width="62" height="62" fill="white" transform="translate(266 141)"/>
</clipPath>
<clipPath id="clip2_240_294">
<rect width="56" height="65" fill="white" transform="translate(590 133)"/>
</clipPath>
</defs>
</svg>
