<svg width="20" height="23" viewBox="0 0 20 23" fill="none" xmlns="http://www.w3.org/2000/svg">
<path d="M17.9286 15.4643C17.3234 15.4643 16.6071 14.7481 16.6071 14.1429V7.53572C16.6071 3.89287 13.6428 0.928574 10 0.928574C6.35715 0.928574 3.39286 3.89287 3.39286 7.53572V14.1429C3.39286 14.7352 2.66376 15.4643 2.07143 15.4643C1.34101 15.4643 0.75 16.0553 0.75 16.7857C0.75 17.5161 1.34101 18.1071 2.07143 18.1071H17.9286C18.659 18.1071 19.25 17.5161 19.25 16.7857C19.25 16.0553 18.659 15.4643 17.9286 15.4643Z" fill="#231F20"/>
<path d="M9.99979 22.0714C11.4593 22.0714 12.6426 20.8881 12.6426 19.4286H7.35693C7.35693 20.8881 8.54027 22.0714 9.99979 22.0714Z" fill="#231F20"/>
</svg>
