<svg width="418" height="960" viewBox="0 0 418 960" fill="none" xmlns="http://www.w3.org/2000/svg">
<path d="M378 10V199.617C378 213.424 366.807 224.617 353 224.617H119C105.193 224.617 94 235.81 94 249.617V279V462.761C94 476.568 105.193 487.761 119 487.761H353C366.807 487.761 378 498.954 378 512.761V536V654.5V708.395C378 722.202 366.807 733.395 353 733.395H119C105.193 733.395 94 744.588 94 758.395V925" stroke="#D39C32" stroke-width="5" stroke-dasharray="10 10"/>
<path d="M235.5 872.833H226.4V870.222C226.396 867.34 224.07 865.004 221.2 865H210.8C207.93 865.004 205.604 867.34 205.6 870.222V872.833H196.5C192.912 872.837 190.003 875.757 190 879.361V905.472C190.003 909.076 192.912 911.997 196.5 912H235.5C239.088 911.997 241.997 909.076 242 905.472V879.361C241.997 875.757 239.088 872.837 235.5 872.833ZM208.2 870.222C208.201 868.781 209.364 867.612 210.8 867.611H221.2C222.636 867.612 223.799 868.781 223.8 870.222V872.833H208.2V870.222ZM239.4 905.472C239.398 907.634 237.653 909.386 235.5 909.389H196.5C194.347 909.386 192.602 907.634 192.6 905.472V888.571L207.789 893.656C207.921 893.7 208.06 893.722 208.2 893.722H223.8C223.94 893.722 224.079 893.7 224.211 893.656L239.4 888.571V905.472ZM239.4 885.904C239.263 885.904 239.125 885.909 238.989 885.955L223.589 891.111H208.411L193.011 885.955C192.875 885.909 192.737 885.904 192.6 885.904V879.361C192.602 877.199 194.347 875.447 196.5 875.444H235.5C237.653 875.447 239.398 877.199 239.4 879.361V885.904Z" fill="black"/>
<path d="M145.837 952.224C144.344 952.224 143 951.968 141.805 951.456C140.611 950.923 139.672 950.176 138.989 949.216C138.307 948.256 137.965 947.136 137.965 945.856H141.869C141.955 946.816 142.328 947.605 142.989 948.224C143.672 948.843 144.621 949.152 145.837 949.152C147.096 949.152 148.077 948.853 148.781 948.256C149.485 947.637 149.837 946.848 149.837 945.888C149.837 945.141 149.613 944.533 149.165 944.064C148.739 943.595 148.195 943.232 147.533 942.976C146.893 942.72 145.997 942.443 144.845 942.144C143.395 941.76 142.211 941.376 141.293 940.992C140.397 940.587 139.629 939.968 138.989 939.136C138.349 938.304 138.029 937.195 138.029 935.808C138.029 934.528 138.349 933.408 138.989 932.448C139.629 931.488 140.525 930.752 141.677 930.24C142.829 929.728 144.163 929.472 145.677 929.472C147.832 929.472 149.592 930.016 150.957 931.104C152.344 932.171 153.112 933.643 153.261 935.52H149.229C149.165 934.709 148.781 934.016 148.077 933.44C147.373 932.864 146.445 932.576 145.293 932.576C144.248 932.576 143.395 932.843 142.733 933.376C142.072 933.909 141.741 934.677 141.741 935.68C141.741 936.363 141.944 936.928 142.349 937.376C142.776 937.803 143.309 938.144 143.949 938.4C144.589 938.656 145.464 938.933 146.573 939.232C148.045 939.637 149.24 940.043 150.157 940.448C151.096 940.853 151.885 941.483 152.525 942.336C153.187 943.168 153.517 944.288 153.517 945.696C153.517 946.827 153.208 947.893 152.589 948.896C151.992 949.899 151.107 950.709 149.933 951.328C148.781 951.925 147.416 952.224 145.837 952.224ZM162.078 937.344V947.104C162.078 947.765 162.227 948.245 162.526 948.544C162.846 948.821 163.379 948.96 164.126 948.96H166.366V952H163.486C161.843 952 160.585 951.616 159.71 950.848C158.835 950.08 158.398 948.832 158.398 947.104V937.344H156.318V934.368H158.398V929.984H162.078V934.368H166.366V937.344H162.078ZM168.512 943.104C168.512 941.333 168.875 939.765 169.6 938.4C170.347 937.035 171.349 935.979 172.608 935.232C173.888 934.464 175.296 934.08 176.832 934.08C178.219 934.08 179.424 934.357 180.448 934.912C181.493 935.445 182.325 936.117 182.944 936.928V934.368H186.624V952H182.944V949.376C182.325 950.208 181.483 950.901 180.416 951.456C179.349 952.011 178.133 952.288 176.768 952.288C175.253 952.288 173.867 951.904 172.608 951.136C171.349 950.347 170.347 949.259 169.6 947.872C168.875 946.464 168.512 944.875 168.512 943.104ZM182.944 943.168C182.944 941.952 182.688 940.896 182.176 940C181.685 939.104 181.035 938.421 180.224 937.952C179.413 937.483 178.539 937.248 177.6 937.248C176.661 937.248 175.787 937.483 174.976 937.952C174.165 938.4 173.504 939.072 172.992 939.968C172.501 940.843 172.256 941.888 172.256 943.104C172.256 944.32 172.501 945.387 172.992 946.304C173.504 947.221 174.165 947.925 174.976 948.416C175.808 948.885 176.683 949.12 177.6 949.12C178.539 949.12 179.413 948.885 180.224 948.416C181.035 947.947 181.685 947.264 182.176 946.368C182.688 945.451 182.944 944.384 182.944 943.168ZM195.064 936.928C195.597 936.032 196.301 935.339 197.176 934.848C198.072 934.336 199.128 934.08 200.344 934.08V937.856H199.416C197.986 937.856 196.898 938.219 196.152 938.944C195.426 939.669 195.064 940.928 195.064 942.72V952H191.416V934.368H195.064V936.928ZM207.953 937.344V947.104C207.953 947.765 208.102 948.245 208.401 948.544C208.721 948.821 209.254 948.96 210.001 948.96H212.241V952H209.361C207.718 952 206.46 951.616 205.585 950.848C204.71 950.08 204.273 948.832 204.273 947.104V937.344H202.193V934.368H204.273V929.984H207.953V934.368H212.241V937.344H207.953ZM252.876 929.76L246.284 952H242.156L237.484 935.168L232.524 952L228.428 952.032L222.124 929.76H225.996L230.604 947.872L235.596 929.76H239.692L244.332 947.776L248.972 929.76H252.876ZM263.532 952.288C261.868 952.288 260.364 951.915 259.02 951.168C257.676 950.4 256.62 949.333 255.852 947.968C255.084 946.581 254.7 944.981 254.7 943.168C254.7 941.376 255.095 939.787 255.884 938.4C256.674 937.013 257.751 935.947 259.116 935.2C260.482 934.453 262.007 934.08 263.692 934.08C265.378 934.08 266.903 934.453 268.268 935.2C269.634 935.947 270.711 937.013 271.5 938.4C272.29 939.787 272.684 941.376 272.684 943.168C272.684 944.96 272.279 946.549 271.468 947.936C270.658 949.323 269.548 950.4 268.14 951.168C266.754 951.915 265.218 952.288 263.532 952.288ZM263.532 949.12C264.471 949.12 265.346 948.896 266.156 948.448C266.988 948 267.66 947.328 268.172 946.432C268.684 945.536 268.94 944.448 268.94 943.168C268.94 941.888 268.695 940.811 268.204 939.936C267.714 939.04 267.063 938.368 266.252 937.92C265.442 937.472 264.567 937.248 263.628 937.248C262.69 937.248 261.815 937.472 261.004 937.92C260.215 938.368 259.586 939.04 259.116 939.936C258.647 940.811 258.412 941.888 258.412 943.168C258.412 945.067 258.892 946.539 259.852 947.584C260.834 948.608 262.06 949.12 263.532 949.12ZM279.939 936.928C280.472 936.032 281.176 935.339 282.051 934.848C282.947 934.336 284.003 934.08 285.219 934.08V937.856H284.291C282.861 937.856 281.773 938.219 281.027 938.944C280.301 939.669 279.939 940.928 279.939 942.72V952H276.291V934.368H279.939V936.928ZM295.548 943.2L303.676 952H298.748L292.22 944.416V952H288.572V928.32H292.22V942.08L298.62 934.368H303.676L295.548 943.2Z" fill="black"/>
<path d="M182.199 650.456H172.887L171.287 655H167.479L175.447 632.728H179.671L187.639 655H183.799L182.199 650.456ZM181.175 647.48L177.559 637.144L173.911 647.48H181.175ZM194.751 639.96C195.37 639.149 196.212 638.467 197.279 637.912C198.346 637.357 199.551 637.08 200.895 637.08C202.431 637.08 203.828 637.464 205.087 638.232C206.367 638.979 207.37 640.035 208.095 641.4C208.82 642.765 209.183 644.333 209.183 646.104C209.183 647.875 208.82 649.464 208.095 650.872C207.37 652.259 206.367 653.347 205.087 654.136C203.828 654.904 202.431 655.288 200.895 655.288C199.551 655.288 198.356 655.021 197.311 654.488C196.266 653.933 195.412 653.251 194.751 652.44V663.384H191.103V637.368H194.751V639.96ZM205.471 646.104C205.471 644.888 205.215 643.843 204.703 642.968C204.212 642.072 203.551 641.4 202.719 640.952C201.908 640.483 201.034 640.248 200.095 640.248C199.178 640.248 198.303 640.483 197.471 640.952C196.66 641.421 195.999 642.104 195.487 643C194.996 643.896 194.751 644.952 194.751 646.168C194.751 647.384 194.996 648.451 195.487 649.368C195.999 650.264 196.66 650.947 197.471 651.416C198.303 651.885 199.178 652.12 200.095 652.12C201.034 652.12 201.908 651.885 202.719 651.416C203.551 650.925 204.212 650.221 204.703 649.304C205.215 648.387 205.471 647.32 205.471 646.104ZM216.439 639.96C217.057 639.149 217.9 638.467 218.967 637.912C220.033 637.357 221.239 637.08 222.583 637.08C224.119 637.08 225.516 637.464 226.775 638.232C228.055 638.979 229.057 640.035 229.783 641.4C230.508 642.765 230.871 644.333 230.871 646.104C230.871 647.875 230.508 649.464 229.783 650.872C229.057 652.259 228.055 653.347 226.775 654.136C225.516 654.904 224.119 655.288 222.583 655.288C221.239 655.288 220.044 655.021 218.999 654.488C217.953 653.933 217.1 653.251 216.439 652.44V663.384H212.791V637.368H216.439V639.96ZM227.159 646.104C227.159 644.888 226.903 643.843 226.391 642.968C225.9 642.072 225.239 641.4 224.407 640.952C223.596 640.483 222.721 640.248 221.783 640.248C220.865 640.248 219.991 640.483 219.159 640.952C218.348 641.421 217.687 642.104 217.175 643C216.684 643.896 216.439 644.952 216.439 646.168C216.439 647.384 216.684 648.451 217.175 649.368C217.687 650.264 218.348 650.947 219.159 651.416C219.991 651.885 220.865 652.12 221.783 652.12C222.721 652.12 223.596 651.885 224.407 651.416C225.239 650.925 225.9 650.221 226.391 649.304C226.903 648.387 227.159 647.32 227.159 646.104ZM238.126 631.32V655H234.478V631.32H238.126ZM258.788 637.368L247.972 663.288H244.196L247.78 654.712L240.836 637.368H244.9L249.86 650.808L255.012 637.368H258.788ZM281.981 632.76V648.792C281.981 650.776 281.373 652.344 280.157 653.496C278.962 654.648 277.384 655.224 275.421 655.224C273.458 655.224 271.869 654.648 270.653 653.496C269.458 652.344 268.861 650.776 268.861 648.792H272.541C272.562 649.773 272.808 650.552 273.277 651.128C273.768 651.704 274.482 651.992 275.421 651.992C276.36 651.992 277.074 651.704 277.565 651.128C278.056 650.531 278.301 649.752 278.301 648.792V632.76H281.981ZM295.564 655.288C293.9 655.288 292.396 654.915 291.052 654.168C289.708 653.4 288.652 652.333 287.884 650.968C287.116 649.581 286.732 647.981 286.732 646.168C286.732 644.376 287.126 642.787 287.916 641.4C288.705 640.013 289.782 638.947 291.148 638.2C292.513 637.453 294.038 637.08 295.724 637.08C297.409 637.08 298.934 637.453 300.3 638.2C301.665 638.947 302.742 640.013 303.532 641.4C304.321 642.787 304.716 644.376 304.716 646.168C304.716 647.96 304.31 649.549 303.5 650.936C302.689 652.323 301.58 653.4 300.172 654.168C298.785 654.915 297.249 655.288 295.564 655.288ZM295.564 652.12C296.502 652.12 297.377 651.896 298.188 651.448C299.02 651 299.692 650.328 300.204 649.432C300.716 648.536 300.972 647.448 300.972 646.168C300.972 644.888 300.726 643.811 300.236 642.936C299.745 642.04 299.094 641.368 298.284 640.92C297.473 640.472 296.598 640.248 295.66 640.248C294.721 640.248 293.846 640.472 293.036 640.92C292.246 641.368 291.617 642.04 291.148 642.936C290.678 643.811 290.444 644.888 290.444 646.168C290.444 648.067 290.924 649.539 291.884 650.584C292.865 651.608 294.092 652.12 295.564 652.12ZM311.97 639.992C312.589 639.139 313.431 638.445 314.498 637.912C315.586 637.357 316.791 637.08 318.114 637.08C319.671 637.08 321.079 637.453 322.338 638.2C323.597 638.947 324.589 640.013 325.314 641.4C326.039 642.765 326.402 644.333 326.402 646.104C326.402 647.875 326.039 649.464 325.314 650.872C324.589 652.259 323.586 653.347 322.306 654.136C321.047 654.904 319.65 655.288 318.114 655.288C316.749 655.288 315.533 655.021 314.466 654.488C313.421 653.955 312.589 653.272 311.97 652.44V655H308.322V631.32H311.97V639.992ZM322.69 646.104C322.69 644.888 322.434 643.843 321.922 642.968C321.431 642.072 320.77 641.4 319.938 640.952C319.127 640.483 318.253 640.248 317.314 640.248C316.397 640.248 315.522 640.483 314.69 640.952C313.879 641.421 313.218 642.104 312.706 643C312.215 643.896 311.97 644.952 311.97 646.168C311.97 647.384 312.215 648.451 312.706 649.368C313.218 650.264 313.879 650.947 314.69 651.416C315.522 651.885 316.397 652.12 317.314 652.12C318.253 652.12 319.127 651.885 319.938 651.416C320.77 650.925 321.431 650.221 321.922 649.304C322.434 648.387 322.69 647.32 322.69 646.104Z" fill="black"/>
<path d="M265.652 615H226.347C225.656 615 225.096 614.44 225.096 613.749V568.345C225.096 567.654 225.656 567.094 226.347 567.094H234.31C235.001 567.094 235.561 567.654 235.561 568.345C235.561 569.036 235.001 569.596 234.31 569.596H227.599V612.489H264.392V569.605H257.97C257.279 569.605 256.719 569.045 256.719 568.354C256.719 567.662 257.279 567.103 257.97 567.103H265.652C266.344 567.103 266.904 567.662 266.904 568.354V613.749C266.904 614.44 266.344 615 265.652 615Z" fill="black"/>
<path d="M257.83 575.284H234.17C233.479 575.284 232.919 574.724 232.919 574.033V566.35C232.919 565.659 233.479 565.099 234.17 565.099H257.83C258.521 565.099 259.081 565.659 259.081 566.35V574.033C259.081 574.724 258.521 575.284 257.83 575.284ZM235.421 572.781H256.57V567.601H235.421V572.781Z" fill="black"/>
<path d="M251.801 567.304C251.11 567.304 250.55 566.744 250.55 566.053C250.55 563.55 248.511 561.511 246.009 561.511C243.506 561.511 241.468 563.55 241.468 566.053C241.468 566.744 240.908 567.304 240.216 567.304C239.525 567.304 238.965 566.744 238.965 566.053C238.947 562.159 242.115 559 246 559C249.885 559 253.053 562.159 253.053 566.053C253.053 566.744 252.493 567.304 251.801 567.304Z" fill="black"/>
<path d="M240.925 604.868C240.601 604.868 240.286 604.745 240.041 604.5L230.959 595.418C230.469 594.928 230.469 594.131 230.959 593.641C231.449 593.151 232.245 593.151 232.735 593.641L240.951 601.858L259.291 584.533C259.799 584.06 260.586 584.078 261.068 584.585C261.54 585.093 261.523 585.88 261.015 586.361L241.791 604.526C241.546 604.754 241.24 604.868 240.925 604.868Z" fill="black"/>
<circle cx="94.5" cy="905.5" r="40.5" fill="#FFC293"/>
<path d="M81.4559 915.468V910.408L96.4979 888.88H103.996V909.856H108.044V915.468H103.996V922H97.5559V915.468H81.4559ZM97.9699 895.78L88.5399 909.856H97.9699V895.78Z" fill="black"/>
<path d="M158.566 384.76V387.736H149.126V394.296H156.486V397.272H149.126V407H145.478V384.76H158.566ZM163.803 387.032C163.142 387.032 162.587 386.808 162.139 386.36C161.691 385.912 161.467 385.357 161.467 384.696C161.467 384.035 161.691 383.48 162.139 383.032C162.587 382.584 163.142 382.36 163.803 382.36C164.443 382.36 164.987 382.584 165.435 383.032C165.883 383.48 166.107 384.035 166.107 384.696C166.107 385.357 165.883 385.912 165.435 386.36C164.987 386.808 164.443 387.032 163.803 387.032ZM165.595 389.368V407H161.947V389.368H165.595ZM179.28 389.08C180.667 389.08 181.904 389.368 182.992 389.944C184.102 390.52 184.966 391.373 185.584 392.504C186.203 393.635 186.512 395 186.512 396.6V407H182.896V397.144C182.896 395.565 182.502 394.36 181.712 393.528C180.923 392.675 179.846 392.248 178.48 392.248C177.115 392.248 176.027 392.675 175.216 393.528C174.427 394.36 174.032 395.565 174.032 397.144V407H170.384V389.368H174.032V391.384C174.63 390.659 175.387 390.093 176.304 389.688C177.243 389.283 178.235 389.08 179.28 389.08ZM189.95 398.104C189.95 396.333 190.312 394.765 191.038 393.4C191.784 392.035 192.787 390.979 194.046 390.232C195.326 389.464 196.744 389.08 198.302 389.08C199.454 389.08 200.584 389.336 201.694 389.848C202.824 390.339 203.72 391 204.382 391.832V383.32H208.062V407H204.382V404.344C203.784 405.197 202.952 405.901 201.886 406.456C200.84 407.011 199.635 407.288 198.27 407.288C196.734 407.288 195.326 406.904 194.046 406.136C192.787 405.347 191.784 404.259 191.038 402.872C190.312 401.464 189.95 399.875 189.95 398.104ZM204.382 398.168C204.382 396.952 204.126 395.896 203.614 395C203.123 394.104 202.472 393.421 201.662 392.952C200.851 392.483 199.976 392.248 199.038 392.248C198.099 392.248 197.224 392.483 196.414 392.952C195.603 393.4 194.942 394.072 194.43 394.968C193.939 395.843 193.694 396.888 193.694 398.104C193.694 399.32 193.939 400.387 194.43 401.304C194.942 402.221 195.603 402.925 196.414 403.416C197.246 403.885 198.12 404.12 199.038 404.12C199.976 404.12 200.851 403.885 201.662 403.416C202.472 402.947 203.123 402.264 203.614 401.368C204.126 400.451 204.382 399.384 204.382 398.168ZM234.574 402.456H225.262L223.662 407H219.854L227.822 384.728H232.046L240.014 407H236.174L234.574 402.456ZM233.55 399.48L229.934 389.144L226.286 399.48H233.55ZM253.647 387.032C252.985 387.032 252.431 386.808 251.983 386.36C251.535 385.912 251.311 385.357 251.311 384.696C251.311 384.035 251.535 383.48 251.983 383.032C252.431 382.584 252.985 382.36 253.647 382.36C254.287 382.36 254.831 382.584 255.279 383.032C255.727 383.48 255.951 384.035 255.951 384.696C255.951 385.357 255.727 385.912 255.279 386.36C254.831 386.808 254.287 387.032 253.647 387.032ZM255.439 410.456C255.439 412.184 255.001 413.432 254.127 414.2C253.273 414.989 252.025 415.384 250.383 415.384H248.495V412.312H249.743C250.489 412.312 251.012 412.163 251.311 411.864C251.631 411.587 251.791 411.117 251.791 410.456V389.368H255.439V410.456ZM267.876 407.288C266.212 407.288 264.708 406.915 263.364 406.168C262.02 405.4 260.964 404.333 260.196 402.968C259.428 401.581 259.044 399.981 259.044 398.168C259.044 396.376 259.439 394.787 260.228 393.4C261.018 392.013 262.095 390.947 263.46 390.2C264.826 389.453 266.351 389.08 268.036 389.08C269.722 389.08 271.247 389.453 272.612 390.2C273.978 390.947 275.055 392.013 275.844 393.4C276.634 394.787 277.028 396.376 277.028 398.168C277.028 399.96 276.623 401.549 275.812 402.936C275.002 404.323 273.892 405.4 272.484 406.168C271.098 406.915 269.562 407.288 267.876 407.288ZM267.876 404.12C268.815 404.12 269.69 403.896 270.5 403.448C271.332 403 272.004 402.328 272.516 401.432C273.028 400.536 273.284 399.448 273.284 398.168C273.284 396.888 273.039 395.811 272.548 394.936C272.058 394.04 271.407 393.368 270.596 392.92C269.786 392.472 268.911 392.248 267.972 392.248C267.034 392.248 266.159 392.472 265.348 392.92C264.559 393.368 263.93 394.04 263.46 394.936C262.991 395.811 262.756 396.888 262.756 398.168C262.756 400.067 263.236 401.539 264.196 402.584C265.178 403.608 266.404 404.12 267.876 404.12ZM284.282 391.992C284.901 391.139 285.744 390.445 286.81 389.912C287.898 389.357 289.104 389.08 290.426 389.08C291.984 389.08 293.392 389.453 294.65 390.2C295.909 390.947 296.901 392.013 297.626 393.4C298.352 394.765 298.714 396.333 298.714 398.104C298.714 399.875 298.352 401.464 297.626 402.872C296.901 404.259 295.898 405.347 294.618 406.136C293.36 406.904 291.962 407.288 290.426 407.288C289.061 407.288 287.845 407.021 286.778 406.488C285.733 405.955 284.901 405.272 284.282 404.44V407H280.634V383.32H284.282V391.992ZM295.002 398.104C295.002 396.888 294.746 395.843 294.234 394.968C293.744 394.072 293.082 393.4 292.25 392.952C291.44 392.483 290.565 392.248 289.626 392.248C288.709 392.248 287.834 392.483 287.002 392.952C286.192 393.421 285.53 394.104 285.018 395C284.528 395.896 284.282 396.952 284.282 398.168C284.282 399.384 284.528 400.451 285.018 401.368C285.53 402.264 286.192 402.947 287.002 403.416C287.834 403.885 288.709 404.12 289.626 404.12C290.565 404.12 291.44 403.885 292.25 403.416C293.082 402.925 293.744 402.221 294.234 401.304C294.746 400.387 295.002 399.32 295.002 398.104Z" fill="black"/>
<g clip-path="url(#clip0_439_982)">
<path d="M218 340.308C223.171 340.308 227.333 344.455 227.333 349.593C227.333 354.737 223.171 358.872 218 358.872C212.829 358.872 208.667 354.737 208.667 349.593C208.667 344.455 212.829 340.308 218 340.308ZM192.333 329.729C193.822 331.241 195.888 332.183 198.167 332.183H199.48C200.002 334.178 201.836 335.665 204 335.665C206.158 335.665 207.992 334.178 208.514 332.183H227.486C228.008 334.178 229.844 335.665 232.006 335.665C234.164 335.665 235.993 334.178 236.514 332.183H237.833C240.112 332.183 242.178 331.247 243.667 329.735V340.308C243.667 344.811 240.027 348.433 235.5 348.433H229.612C229.023 342.581 224.034 337.987 218 337.987C211.966 337.987 206.984 342.581 206.388 348.433H200.5C195.973 348.433 192.333 344.811 192.333 340.308V329.729ZM232.006 328.701C233.307 328.701 234.327 329.723 234.327 331.023C234.327 332.316 233.307 333.344 232.006 333.344C230.7 333.344 229.673 332.316 229.673 331.023C229.673 329.723 230.7 328.701 232.006 328.701ZM204 328.701C205.3 328.701 206.333 329.723 206.333 331.023C206.333 332.316 205.3 333.344 204 333.344C202.693 333.344 201.66 332.316 201.66 331.023C201.66 329.723 202.693 328.701 204 328.701ZM200.5 311.291H235.5C240.027 311.291 243.667 314.913 243.667 319.41V324.053C243.667 327.275 241.066 329.862 237.833 329.862H236.514C235.998 327.867 234.168 326.38 232.006 326.38C229.844 326.38 228.008 327.867 227.486 329.862H208.514C207.998 327.867 206.164 326.38 204 326.38C201.836 326.38 199.996 327.867 199.48 329.862H198.167C194.934 329.862 192.333 327.275 192.333 324.053V319.41C192.333 314.913 195.973 311.291 200.5 311.291ZM213.333 304.321H222.667C223.329 304.321 223.833 304.835 223.833 305.488V308.97H212.173V305.488C212.173 304.835 212.677 304.321 213.333 304.321ZM213.333 302C211.414 302 209.833 303.578 209.833 305.488V308.97H200.5C194.715 308.97 190 313.655 190 319.41V340.308C190 346.063 194.715 350.754 200.5 350.754H206.388C206.977 356.611 211.966 361.2 218 361.2C220.795 361.2 223.365 360.214 225.383 358.577L233.514 366.666C233.969 367.113 234.705 367.113 235.155 366.666C235.617 366.212 235.617 365.474 235.155 365.021L227.03 356.932C228.446 355.215 229.382 353.088 229.612 350.754H235.5C241.285 350.754 246 346.063 246 340.308V319.41C246 313.655 241.285 308.97 235.5 308.97H226.167V305.488C226.167 303.578 224.586 302 222.667 302H213.333Z" fill="black"/>
</g>
<path d="M210.122 80.832C210.122 78.656 210.623 76.704 211.626 74.976C212.65 73.248 214.026 71.904 215.754 70.944C217.503 69.9627 219.412 69.472 221.482 69.472C223.85 69.472 225.951 70.0587 227.786 71.232C229.642 72.384 230.986 74.0267 231.818 76.16H227.434C226.858 74.9867 226.058 74.112 225.034 73.536C224.01 72.96 222.826 72.672 221.482 72.672C220.01 72.672 218.698 73.0027 217.546 73.664C216.394 74.3253 215.487 75.2747 214.826 76.512C214.186 77.7493 213.866 79.1893 213.866 80.832C213.866 82.4747 214.186 83.9147 214.826 85.152C215.487 86.3893 216.394 87.3493 217.546 88.032C218.698 88.6933 220.01 89.024 221.482 89.024C222.826 89.024 224.01 88.736 225.034 88.16C226.058 87.584 226.858 86.7093 227.434 85.536H231.818C230.986 87.6693 229.642 89.312 227.786 90.464C225.951 91.616 223.85 92.192 221.482 92.192C219.391 92.192 217.482 91.712 215.754 90.752C214.026 89.7707 212.65 88.416 211.626 86.688C210.623 84.96 210.122 83.008 210.122 80.832ZM239.736 76.928C240.269 76.032 240.973 75.3387 241.848 74.848C242.744 74.336 243.8 74.08 245.016 74.08V77.856H244.088C242.658 77.856 241.57 78.2187 240.824 78.944C240.098 79.6693 239.736 80.928 239.736 82.72V92H236.088V74.368H239.736V76.928ZM264.529 82.752C264.529 83.4133 264.486 84.0107 264.401 84.544H250.929C251.035 85.952 251.558 87.0827 252.497 87.936C253.435 88.7893 254.587 89.216 255.953 89.216C257.915 89.216 259.302 88.3947 260.113 86.752H264.049C263.515 88.3733 262.545 89.7067 261.137 90.752C259.75 91.776 258.022 92.288 255.953 92.288C254.267 92.288 252.753 91.9147 251.409 91.168C250.086 90.4 249.041 89.3333 248.273 87.968C247.526 86.5813 247.153 84.9813 247.153 83.168C247.153 81.3547 247.515 79.7653 248.241 78.4C248.987 77.0133 250.022 75.9467 251.345 75.2C252.689 74.4533 254.225 74.08 255.953 74.08C257.617 74.08 259.099 74.4427 260.401 75.168C261.702 75.8933 262.715 76.9173 263.441 78.24C264.166 79.5413 264.529 81.0453 264.529 82.752ZM260.721 81.6C260.699 80.256 260.219 79.1787 259.281 78.368C258.342 77.5573 257.179 77.152 255.793 77.152C254.534 77.152 253.457 77.5573 252.561 78.368C251.665 79.1573 251.131 80.2347 250.961 81.6H260.721ZM266.903 83.104C266.903 81.3333 267.265 79.7653 267.991 78.4C268.737 77.0347 269.74 75.9787 270.999 75.232C272.279 74.464 273.687 74.08 275.223 74.08C276.609 74.08 277.815 74.3573 278.839 74.912C279.884 75.4453 280.716 76.1173 281.335 76.928V74.368H285.015V92H281.335V89.376C280.716 90.208 279.873 90.9013 278.807 91.456C277.74 92.0107 276.524 92.288 275.159 92.288C273.644 92.288 272.257 91.904 270.999 91.136C269.74 90.3467 268.737 89.2587 267.991 87.872C267.265 86.464 266.903 84.8747 266.903 83.104ZM281.335 83.168C281.335 81.952 281.079 80.896 280.567 80C280.076 79.104 279.425 78.4213 278.615 77.952C277.804 77.4827 276.929 77.248 275.991 77.248C275.052 77.248 274.177 77.4827 273.367 77.952C272.556 78.4 271.895 79.072 271.383 79.968C270.892 80.8427 270.647 81.888 270.647 83.104C270.647 84.32 270.892 85.3867 271.383 86.304C271.895 87.2213 272.556 87.9253 273.367 88.416C274.199 88.8853 275.073 89.12 275.991 89.12C276.929 89.12 277.804 88.8853 278.615 88.416C279.425 87.9467 280.076 87.264 280.567 86.368C281.079 85.4507 281.335 84.384 281.335 83.168ZM294.062 77.344V87.104C294.062 87.7653 294.212 88.2453 294.51 88.544C294.83 88.8213 295.364 88.96 296.11 88.96H298.35V92H295.47C293.828 92 292.569 91.616 291.694 90.848C290.82 90.08 290.382 88.832 290.382 87.104V77.344H288.302V74.368H290.382V69.984H294.062V74.368H298.35V77.344H294.062ZM317.873 82.752C317.873 83.4133 317.83 84.0107 317.745 84.544H304.273C304.379 85.952 304.902 87.0827 305.841 87.936C306.779 88.7893 307.931 89.216 309.297 89.216C311.259 89.216 312.646 88.3947 313.457 86.752H317.392C316.859 88.3733 315.889 89.7067 314.481 90.752C313.094 91.776 311.366 92.288 309.297 92.288C307.611 92.288 306.097 91.9147 304.753 91.168C303.43 90.4 302.385 89.3333 301.617 87.968C300.87 86.5813 300.497 84.9813 300.497 83.168C300.497 81.3547 300.859 79.7653 301.585 78.4C302.331 77.0133 303.366 75.9467 304.689 75.2C306.033 74.4533 307.569 74.08 309.297 74.08C310.961 74.08 312.443 74.4427 313.745 75.168C315.046 75.8933 316.059 76.9173 316.785 78.24C317.51 79.5413 317.873 81.0453 317.873 82.752ZM314.065 81.6C314.043 80.256 313.563 79.1787 312.625 78.368C311.686 77.5573 310.523 77.152 309.137 77.152C307.878 77.152 306.801 77.5573 305.905 78.368C305.009 79.1573 304.475 80.2347 304.305 81.6H314.065ZM198.215 111.104C198.215 109.333 198.578 107.765 199.303 106.4C200.05 105.035 201.053 103.979 202.311 103.232C203.591 102.464 204.999 102.08 206.535 102.08C207.922 102.08 209.127 102.357 210.151 102.912C211.197 103.445 212.029 104.117 212.647 104.928V102.368H216.327V120H212.647V117.376C212.029 118.208 211.186 118.901 210.119 119.456C209.053 120.011 207.837 120.288 206.471 120.288C204.957 120.288 203.57 119.904 202.311 119.136C201.053 118.347 200.05 117.259 199.303 115.872C198.578 114.464 198.215 112.875 198.215 111.104ZM212.647 111.168C212.647 109.952 212.391 108.896 211.879 108C211.389 107.104 210.738 106.421 209.927 105.952C209.117 105.483 208.242 105.248 207.303 105.248C206.365 105.248 205.49 105.483 204.679 105.952C203.869 106.4 203.207 107.072 202.695 107.968C202.205 108.843 201.959 109.888 201.959 111.104C201.959 112.32 202.205 113.387 202.695 114.304C203.207 115.221 203.869 115.925 204.679 116.416C205.511 116.885 206.386 117.12 207.303 117.12C208.242 117.12 209.117 116.885 209.927 116.416C210.738 115.947 211.389 115.264 211.879 114.368C212.391 113.451 212.647 112.384 212.647 111.168ZM219.903 111.168C219.903 109.355 220.265 107.765 220.991 106.4C221.737 105.013 222.761 103.947 224.063 103.2C225.364 102.453 226.857 102.08 228.543 102.08C230.676 102.08 232.436 102.592 233.823 103.616C235.231 104.619 236.18 106.059 236.671 107.936H232.735C232.415 107.061 231.903 106.379 231.199 105.888C230.495 105.397 229.609 105.152 228.543 105.152C227.049 105.152 225.855 105.685 224.959 106.752C224.084 107.797 223.647 109.269 223.647 111.168C223.647 113.067 224.084 114.549 224.959 115.616C225.855 116.683 227.049 117.216 228.543 117.216C230.655 117.216 232.052 116.288 232.735 114.432H236.671C236.159 116.224 235.199 117.653 233.791 118.72C232.383 119.765 230.633 120.288 228.543 120.288C226.857 120.288 225.364 119.915 224.063 119.168C222.761 118.4 221.737 117.333 220.991 115.968C220.265 114.581 219.903 112.981 219.903 111.168ZM239.09 111.168C239.09 109.355 239.453 107.765 240.178 106.4C240.925 105.013 241.949 103.947 243.25 103.2C244.552 102.453 246.045 102.08 247.73 102.08C249.864 102.08 251.624 102.592 253.01 103.616C254.418 104.619 255.368 106.059 255.858 107.936H251.922C251.602 107.061 251.09 106.379 250.386 105.888C249.682 105.397 248.797 105.152 247.73 105.152C246.237 105.152 245.042 105.685 244.146 106.752C243.272 107.797 242.834 109.269 242.834 111.168C242.834 113.067 243.272 114.549 244.146 115.616C245.042 116.683 246.237 117.216 247.73 117.216C249.842 117.216 251.24 116.288 251.922 114.432H255.858C255.346 116.224 254.386 117.653 252.978 118.72C251.57 119.765 249.821 120.288 247.73 120.288C246.045 120.288 244.552 119.915 243.25 119.168C241.949 118.4 240.925 117.333 240.178 115.968C239.453 114.581 239.09 112.981 239.09 111.168ZM267.142 120.288C265.478 120.288 263.974 119.915 262.63 119.168C261.286 118.4 260.23 117.333 259.462 115.968C258.694 114.581 258.31 112.981 258.31 111.168C258.31 109.376 258.704 107.787 259.494 106.4C260.283 105.013 261.36 103.947 262.726 103.2C264.091 102.453 265.616 102.08 267.302 102.08C268.987 102.08 270.512 102.453 271.878 103.2C273.243 103.947 274.32 105.013 275.11 106.4C275.899 107.787 276.294 109.376 276.294 111.168C276.294 112.96 275.888 114.549 275.078 115.936C274.267 117.323 273.158 118.4 271.75 119.168C270.363 119.915 268.827 120.288 267.142 120.288ZM267.142 117.12C268.08 117.12 268.955 116.896 269.766 116.448C270.598 116 271.27 115.328 271.782 114.432C272.294 113.536 272.55 112.448 272.55 111.168C272.55 109.888 272.304 108.811 271.814 107.936C271.323 107.04 270.672 106.368 269.862 105.92C269.051 105.472 268.176 105.248 267.238 105.248C266.299 105.248 265.424 105.472 264.614 105.92C263.824 106.368 263.195 107.04 262.726 107.936C262.256 108.811 262.022 109.888 262.022 111.168C262.022 113.067 262.502 114.539 263.462 115.584C264.443 116.608 265.67 117.12 267.142 117.12ZM295.868 102.368V120H292.22V117.92C291.644 118.645 290.887 119.221 289.948 119.648C289.031 120.053 288.049 120.256 287.004 120.256C285.617 120.256 284.369 119.968 283.26 119.392C282.172 118.816 281.308 117.963 280.668 116.832C280.049 115.701 279.74 114.336 279.74 112.736V102.368H283.356V112.192C283.356 113.771 283.751 114.987 284.54 115.84C285.329 116.672 286.407 117.088 287.772 117.088C289.137 117.088 290.215 116.672 291.004 115.84C291.815 114.987 292.22 113.771 292.22 112.192V102.368H295.868ZM309.577 102.08C310.964 102.08 312.201 102.368 313.289 102.944C314.399 103.52 315.263 104.373 315.881 105.504C316.5 106.635 316.809 108 316.809 109.6V120H313.193V110.144C313.193 108.565 312.799 107.36 312.009 106.528C311.22 105.675 310.143 105.248 308.777 105.248C307.412 105.248 306.324 105.675 305.513 106.528C304.724 107.36 304.329 108.565 304.329 110.144V120H300.681V102.368H304.329V104.384C304.927 103.659 305.684 103.093 306.601 102.688C307.54 102.283 308.532 102.08 309.577 102.08ZM325.719 105.344V115.104C325.719 115.765 325.868 116.245 326.167 116.544C326.487 116.821 327.02 116.96 327.767 116.96H330.007V120H327.127C325.484 120 324.225 119.616 323.351 118.848C322.476 118.08 322.039 116.832 322.039 115.104V105.344H319.959V102.368H322.039V97.984H325.719V102.368H330.007V105.344H325.719Z" fill="black"/>
<g clip-path="url(#clip1_439_982)">
<g clip-path="url(#clip2_439_982)">
<path fill-rule="evenodd" clip-rule="evenodd" d="M266.833 13.764C265.476 13.764 264.132 14.0313 262.879 14.5506C261.625 15.0699 260.486 15.831 259.526 16.7906C258.567 17.7501 257.806 18.8892 257.286 20.1429C256.767 21.3966 256.5 22.7403 256.5 24.0973C256.5 25.4543 256.767 26.798 257.286 28.0517C257.806 29.3054 258.567 30.4446 259.526 31.4041C260.486 32.3636 261.625 33.1248 262.879 33.6441C264.132 34.1634 265.476 34.4307 266.833 34.4307C269.574 34.4307 272.202 33.342 274.14 31.4041C276.078 29.4662 277.167 26.8379 277.167 24.0973C277.167 21.3568 276.078 18.7284 274.14 16.7906C272.202 14.8527 269.574 13.764 266.833 13.764ZM253.917 24.0973C253.917 20.6716 255.277 17.3862 257.7 14.9639C260.122 12.5415 263.407 11.1807 266.833 11.1807C270.259 11.1807 273.544 12.5415 275.967 14.9639C278.389 17.3862 279.75 20.6716 279.75 24.0973C279.75 27.523 278.389 30.8084 275.967 33.2308C273.544 35.6531 270.259 37.014 266.833 37.014C263.407 37.014 260.122 35.6531 257.7 33.2308C255.277 30.8084 253.917 27.523 253.917 24.0973Z" fill="black"/>
<path fill-rule="evenodd" clip-rule="evenodd" d="M247.5 55.0974H251.333C251.676 55.0974 252.004 55.2335 252.247 55.4757C252.489 55.7179 252.625 56.0465 252.625 56.389C252.625 56.7316 252.489 57.0602 252.247 57.3024C252.004 57.5446 251.676 57.6807 251.333 57.6807H246.167C245.824 57.6807 245.496 57.5446 245.253 57.3024C245.011 57.0602 244.875 56.7316 244.875 56.389C244.875 50.5653 247.188 44.9801 251.306 40.8622C255.424 36.7442 261.01 34.4307 266.833 34.4307C272.657 34.4307 278.242 36.7442 282.36 40.8622C286.478 44.9801 288.792 50.5653 288.792 56.389C288.792 56.7316 288.656 57.0602 288.413 57.3024C288.171 57.5446 287.843 57.6807 287.5 57.6807H259.083C258.741 57.6807 258.412 57.5446 258.17 57.3024C257.928 57.0602 257.792 56.7316 257.792 56.389C257.792 56.0465 257.928 55.7179 258.17 55.4757C258.412 55.2335 258.741 55.0974 259.083 55.0974H286.167C285.846 50.1883 283.669 45.5852 280.079 42.2219C276.488 38.8587 271.753 36.9873 266.833 36.9873C261.914 36.9873 257.178 38.8587 253.588 42.2219C249.997 45.5852 247.821 50.1883 247.5 55.0974ZM282.778 15.0557C282.778 15.3983 282.914 15.7268 283.156 15.9691C283.398 16.2113 283.727 16.3474 284.069 16.3474H298.681C299.023 16.3474 299.352 16.2113 299.594 15.9691C299.836 15.7268 299.972 15.3983 299.972 15.0557C299.972 14.7131 299.836 14.3846 299.594 14.1424C299.352 13.9001 299.023 13.764 298.681 13.764H284.069C283.727 13.764 283.398 13.9001 283.156 14.1424C282.914 14.3846 282.778 14.7131 282.778 15.0557Z" fill="black"/>
<path fill-rule="evenodd" clip-rule="evenodd" d="M291.375 23.6556C291.033 23.6556 290.704 23.5195 290.462 23.2773C290.22 23.0351 290.083 22.7065 290.083 22.364V7.75004C290.083 7.40747 290.22 7.07893 290.462 6.83669C290.704 6.59446 291.033 6.45837 291.375 6.45837C291.718 6.45837 292.046 6.59446 292.289 6.83669C292.531 7.07893 292.667 7.40747 292.667 7.75004V22.364C292.667 22.7065 292.531 23.0351 292.289 23.2773C292.046 23.5195 291.718 23.6556 291.375 23.6556Z" fill="black"/>
</g>
</g>
<circle cx="377.5" cy="40.5" r="40.5" fill="#FFC293"/>
<path d="M370.823 29.4V23.466H381.909V57H375.285V29.4H370.823Z" fill="black"/>
<circle cx="377.5" cy="598.5" r="40.5" fill="#FFC293"/>
<path d="M366.761 590.298C366.915 587.231 367.988 584.87 369.981 583.214C372.005 581.527 374.658 580.684 377.939 580.684C380.178 580.684 382.095 581.083 383.689 581.88C385.284 582.647 386.48 583.705 387.277 585.054C388.105 586.373 388.519 587.875 388.519 589.562C388.519 591.494 388.013 593.135 387.001 594.484C386.02 595.803 384.839 596.692 383.459 597.152V597.336C385.238 597.888 386.618 598.869 387.599 600.28C388.611 601.691 389.117 603.5 389.117 605.708C389.117 607.548 388.688 609.189 387.829 610.63C387.001 612.071 385.759 613.206 384.103 614.034C382.478 614.831 380.515 615.23 378.215 615.23C374.75 615.23 371.929 614.356 369.751 612.608C367.574 610.86 366.424 608.284 366.301 604.88H372.557C372.619 606.383 373.125 607.594 374.075 608.514C375.057 609.403 376.391 609.848 378.077 609.848C379.641 609.848 380.837 609.419 381.665 608.56C382.524 607.671 382.953 606.536 382.953 605.156C382.953 603.316 382.371 601.997 381.205 601.2C380.04 600.403 378.231 600.004 375.777 600.004H374.443V594.714H375.777C380.132 594.714 382.309 593.257 382.309 590.344C382.309 589.025 381.911 587.998 381.113 587.262C380.347 586.526 379.227 586.158 377.755 586.158C376.314 586.158 375.195 586.557 374.397 587.354C373.631 588.121 373.186 589.102 373.063 590.298H366.761Z" fill="black"/>
<circle cx="79.5" cy="342.5" r="40.5" fill="#FFC293"/>
<path d="M70.755 351.732C73.699 349.279 76.045 347.239 77.793 345.614C79.541 343.958 80.9976 342.241 82.163 340.462C83.3283 338.683 83.911 336.935 83.911 335.218C83.911 333.654 83.543 332.427 82.807 331.538C82.071 330.649 80.9363 330.204 79.403 330.204C77.8696 330.204 76.689 330.725 75.861 331.768C75.033 332.78 74.6036 334.175 74.573 335.954H68.317C68.4396 332.274 69.5283 329.483 71.583 327.582C73.6683 325.681 76.3056 324.73 79.495 324.73C82.991 324.73 85.6743 325.665 87.545 327.536C89.4156 329.376 90.351 331.814 90.351 334.85C90.351 337.242 89.707 339.527 88.419 341.704C87.131 343.881 85.659 345.783 84.003 347.408C82.347 349.003 80.185 350.935 77.517 353.204H91.087V358.54H68.363V353.756L70.755 351.732Z" fill="black"/>
<defs>
<clipPath id="clip0_439_982">
<rect width="56" height="65" fill="white" transform="translate(190 302)"/>
</clipPath>
<clipPath id="clip1_439_982">
<rect width="89" height="89" fill="white" transform="translate(227)"/>
</clipPath>
<clipPath id="clip2_439_982">
<rect width="62" height="62" fill="white" transform="translate(241 -10)"/>
</clipPath>
</defs>
</svg>
