<svg width="41" height="48" viewBox="0 0 41 48" fill="none" xmlns="http://www.w3.org/2000/svg">
<path fill-rule="evenodd" clip-rule="evenodd" d="M41 20.671L37.3868 18.0005H37.35V11.3312H37.348L25.7692 0L25.7639 0.00571392H3.64061V18.0165L0 20.7673V35.838H3.64061V47.2433H37.35V35.838H40.9906V31.133L41 20.671ZM11.9056 32.0168V25.3691H14.1508C14.6054 25.3691 14.9989 25.4234 15.3303 25.5295C15.6621 25.6368 15.9339 25.7854 16.1482 25.9764C16.362 26.1674 16.52 26.3943 16.622 26.6572C16.7249 26.92 16.7759 27.2057 16.7759 27.5143C16.7759 27.8408 16.7228 28.1404 16.6155 28.4122C16.5086 28.684 16.3465 28.9174 16.1298 29.1129C15.9131 29.308 15.6396 29.4603 15.3099 29.5684C14.9805 29.6774 14.594 29.7317 14.1507 29.7317H13.2802V32.0177H11.9056L11.9056 32.0168ZM17.9554 32.0168V25.3691H20.5116C21.0218 25.3691 21.4858 25.4516 21.9046 25.6168C22.3229 25.7817 22.6817 26.0115 22.9787 26.307C23.2763 26.6017 23.5073 26.9519 23.6705 27.3583C23.8342 27.764 23.9158 28.2085 23.9158 28.6917C23.9158 29.177 23.8342 29.6239 23.6705 30.0312C23.5069 30.4393 23.2763 30.7899 22.9787 31.0829C22.6812 31.376 22.3229 31.6045 21.9046 31.7698C21.4862 31.9351 21.0218 32.0172 20.5116 32.0172L17.9554 32.0176V32.0168ZM29.4663 26.4462H26.6163V28.2832H29.0085V29.3644H26.6163V32.0169H25.2332V25.3692H29.4664L29.4663 26.4462ZM24.1401 1.63046L24.1291 12.9407L35.7267 12.9538V20.6802H5.26359V1.63088L24.1401 1.63046ZM35.7262 45.621H5.26311V35.8396H35.7262V45.621Z" fill="black"/>
<path fill-rule="evenodd" clip-rule="evenodd" d="M22.3679 29.6346C22.4601 29.357 22.5058 29.0424 22.5058 28.6914C22.5058 28.3428 22.4601 28.0298 22.3679 27.7518C22.2764 27.4743 22.145 27.2384 21.974 27.0466C21.803 26.8539 21.594 26.7062 21.3487 26.6017C21.1034 26.4976 20.8243 26.4458 20.5129 26.4458H19.3398V30.9402H20.5129C20.8247 30.9402 21.103 30.8892 21.3487 30.7864C21.5944 30.6847 21.803 30.5362 21.974 30.3419C22.1454 30.1485 22.2764 29.9125 22.3679 29.6346Z" fill="black"/>
<path fill-rule="evenodd" clip-rule="evenodd" d="M15.1014 28.3661C15.3014 28.1583 15.4013 27.8743 15.4013 27.5143C15.4013 27.3494 15.3764 27.1988 15.3262 27.0633C15.2756 26.927 15.1993 26.8111 15.0969 26.7148C14.9948 26.6185 14.8659 26.5446 14.71 26.4927C14.5541 26.4405 14.3696 26.4148 14.1557 26.4148H13.2852V28.6783H14.1557C14.5863 28.6775 14.9014 28.5734 15.1014 28.3661Z" fill="black"/>
</svg>
