<svg width="22" height="22" viewBox="0 0 22 22" fill="none" xmlns="http://www.w3.org/2000/svg">
<path d="M5.87241 21.9512C7.43503 21.9512 8.92462 21.3409 10.0234 20.2421L13.2709 16.9945C14.1988 16.0666 14.736 14.8946 14.9068 13.6981C15.1266 13.7958 15.3709 13.8446 15.6149 13.8446C16.1275 13.8446 16.616 13.6492 16.9823 13.2831L20.2785 10.0113C22.5738 7.71602 22.5738 4.0045 20.2785 1.70918C19.1797 0.610372 17.6904 0 16.1276 0C14.565 0 13.0754 0.610372 11.9766 1.70918L8.70483 4.95675C7.77696 5.88461 7.23972 7.05665 7.06893 8.25316C6.84913 8.15548 6.60491 8.10663 6.3609 8.10663C5.84823 8.10663 5.3598 8.30201 4.99345 8.66815L1.72145 11.9157C-0.573818 14.211 -0.573818 17.9225 1.72145 20.2178C2.84469 21.3409 4.3096 21.9512 5.87241 21.9512ZM14.4673 10.353C14.1742 9.74263 13.808 9.15649 13.2952 8.66825C12.9288 8.30192 12.4406 8.10673 11.9277 8.10673C11.5858 8.10673 11.2685 8.20442 10.9755 8.35095C11.0732 8.10673 11.2197 7.86252 11.4151 7.66735L14.6626 4.41978C15.0534 4.02903 15.5417 3.83384 16.1034 3.83384C16.6405 3.83384 17.1533 4.05364 17.5441 4.41978C17.9349 4.81053 18.13 5.2988 18.13 5.86051C18.13 6.39761 17.9102 6.91047 17.5441 7.30124L14.4673 10.353ZM9.55917 5.81146L12.8067 2.56389C13.7102 1.68488 14.8822 1.19664 16.1274 1.19664C17.3727 1.19664 18.5448 1.68507 19.4238 2.56409C21.2306 4.37092 21.2306 7.32542 19.4238 9.13211L16.1518 12.4039C15.8832 12.6726 15.4194 12.6726 15.1507 12.4039C14.8821 12.1353 14.8821 11.6715 15.1507 11.4028L18.3983 8.15525C19.668 6.8855 19.668 4.8344 18.3983 3.56485C17.7879 2.95448 16.982 2.6126 16.103 2.6126C15.2484 2.6126 14.4183 2.95451 13.8077 3.56485L10.5604 6.81242C9.95 7.42279 9.60812 8.22872 9.60812 9.10769C9.60812 9.9867 9.95003 10.7924 10.5604 11.403C10.829 11.6716 10.829 12.1354 10.5604 12.4041C10.2917 12.6727 9.82791 12.6727 9.55927 12.4041C7.75243 10.5726 7.75243 7.6181 9.55927 5.81132L9.55917 5.81146ZM7.53255 11.574C7.82561 12.1844 8.19177 12.7705 8.70463 13.2587C9.07096 13.6251 9.55922 13.8203 10.0721 13.8203C10.414 13.8203 10.7313 13.7226 11.0243 13.576C10.9266 13.8203 10.7801 14.0645 10.5847 14.2596L7.31274 17.5074C6.92199 17.8982 6.43373 18.0934 5.87201 18.0934C5.33492 18.0934 4.82206 17.8736 4.43128 17.5074C4.04053 17.1167 3.84534 16.6284 3.84534 16.0667C3.84534 15.5296 4.06514 15.0167 4.43128 14.6259L7.53255 11.574ZM2.60023 12.7949L5.84779 9.54732C5.9699 9.42521 6.16528 9.35194 6.33623 9.35194C6.5316 9.35194 6.70256 9.42521 6.82466 9.54732C7.0933 9.81596 7.0933 10.2798 6.82466 10.5484L3.60133 13.796C2.33158 15.0657 2.33158 17.1168 3.60133 18.3864C4.2117 18.9968 5.01763 19.3386 5.8966 19.3386C6.75119 19.3386 7.58135 18.9967 8.19187 18.3864L11.4392 15.1144C12.0496 14.504 12.3915 13.6981 12.3915 12.8191C12.3915 11.9401 12.0496 11.1344 11.4392 10.5238C11.1706 10.2552 11.1706 9.79139 11.4392 9.52274C11.7079 9.2541 12.1717 9.2541 12.4403 9.52274C14.2472 11.3296 14.2472 14.2841 12.4403 16.0908L9.16835 19.363C8.28933 20.242 7.11749 20.7304 5.87212 20.7304C4.62681 20.7304 3.45472 20.242 2.5757 19.363C0.768866 17.5561 0.768867 14.6016 2.60013 12.7949L2.60023 12.7949Z" fill="black"/>
</svg>
