<svg width="38" height="27" viewBox="0 0 38 27" fill="none" xmlns="http://www.w3.org/2000/svg">
<path fill-rule="evenodd" clip-rule="evenodd" d="M15.1703 18.3823V7.78777C18.9314 9.55754 21.8443 11.2672 25.2895 13.1104C22.448 14.6863 18.9314 16.4544 15.1703 18.3823ZM36.1309 2.5186C35.4821 1.66383 34.3763 0.998464 33.1991 0.778183C29.7389 0.121098 8.15208 0.119229 4.69375 0.778183C3.74972 0.955155 2.90909 1.38292 2.18696 2.04754C-0.85577 4.87166 0.0976765 20.0165 0.831092 22.4697C1.1395 23.5316 1.53819 24.2974 2.0403 24.8001C2.68721 25.4647 3.57293 25.9223 4.59031 26.1275C7.43934 26.7169 22.117 27.0463 33.1389 26.216C34.1544 26.0391 35.0533 25.5667 35.7623 24.8739C38.5756 22.061 38.3838 6.06568 36.1309 2.5186Z" fill="white"/>
</svg>
